<?xml version="1.0" encoding="UTF-8"?>
<svg version="1.1" xmlns="http://www.w3.org/2000/svg" width="1546" height="1683">
<path d="M0 0 C4.75565411 -0.00627606 9.51130684 -0.01083323 14.266964 -0.01401549 C15.95703175 -0.01537882 17.64709919 -0.017269 19.33716562 -0.01978362 C84.69918721 -0.11387106 84.69918721 -0.11387106 104.86118674 19.00815845 C112.26975791 27.11823404 113.32801636 35.67072611 113.32993674 46.18003345 C113.33755027 47.33884021 113.34516379 48.49764697 113.35300803 49.69156909 C113.36377749 52.13561872 113.36667504 54.57971425 113.36216331 57.02378345 C113.36119334 60.73291201 113.40280738 64.43995419 113.44712424 68.14878345 C113.45233388 70.53419584 113.45501939 72.91961536 113.45493674 75.30503345 C113.47133201 76.39918567 113.48772727 77.49333789 113.50461936 78.62064624 C113.40135767 90.32117902 108.79454467 99.76968411 101.86118674 109.00815845 C101.45771018 109.57663501 101.05423362 110.14511157 100.63853049 110.7308147 C93.82342506 119.54668503 83.53600904 126.20513629 74.17368674 132.07065845 C73.60529075 132.44045825 73.03689475 132.81025805 72.45127463 133.19126391 C61.61197188 139.71660692 47.92315718 138.29399853 35.75376487 138.26694751 C33.67225217 138.26962578 31.59074041 138.27314552 29.50923038 138.27742171 C23.71568745 138.28655242 17.9222136 138.28271019 12.12866926 138.27659464 C6.34444755 138.27224251 0.56023556 138.27690594 -5.22398556 138.28068977 C-19.01134216 138.28907011 -32.79866794 138.28160509 -46.58601981 138.26953906 C-56.74717311 138.26069684 -66.90832176 138.25524467 -77.06947849 138.25245117 C-164.89462137 138.22769942 -252.71935373 138.00269588 -517.42656305 137.1291539 C-529.1572336 137.08716795 -540.88790614 137.04577672 -552.6185801 137.00475574 C-585.91515415 136.88824439 -619.21171406 136.76888239 -652.50824553 136.64071411 C-654.66012612 136.63243509 -656.81200672 136.62415745 -658.96388733 136.61588222 C-660.38866275 136.61040305 -661.81343816 136.60492113 -663.23821355 136.59943641 C-673.70523351 136.55919053 -684.1722597 136.5210956 -694.639292 136.48421168 C-706.44701023 136.44259402 -718.25471296 136.3978327 -730.0624051 136.34929516 C-736.03043624 136.32482987 -741.99846415 136.3015838 -747.96651387 136.28211904 C-776.04047798 136.18945928 -804.0740344 135.78608163 -832.13881326 135.00815845 C-832.13881326 157.11815845 -832.13881326 179.22815845 -832.13881326 202.00815845 C-833.78881326 202.00815845 -835.43881326 202.00815845 -837.13881326 202.00815845 C-837.13881326 248.53815845 -837.13881326 295.06815845 -837.13881326 343.00815845 C-824.31802502 346.2133555 -813.54411435 347.15679928 -800.52348733 347.11474109 C-799.04925286 347.11374928 -797.57501803 347.11321335 -796.10078323 347.11308891 C-792.89679155 347.11185241 -789.69282537 347.10743434 -786.48884082 347.10058594 C-781.23102573 347.08941119 -775.97321849 347.08553546 -770.7153933 347.08244395 C-762.9718481 347.07722318 -755.22831191 347.06881435 -747.48477197 347.05844951 C-727.03626286 347.03153514 -706.58773699 347.0253552 -686.13921323 347.01778723 C-682.66719663 347.01644871 -679.19518013 347.01493766 -675.7231636 347.01339161 C-618.49439418 346.98863117 -561.26590013 347.08331716 -504.03725076 347.1917522 C-501.41053574 347.19670287 -498.78382071 347.20165196 -496.15710568 347.20659947 C-472.14123805 347.251923 -448.1253731 347.29854964 -424.10951257 347.34748912 C-423.10984422 347.34952596 -423.10984422 347.34952596 -422.08998056 347.35160396 C-416.69753277 347.3625941 -411.30508499 347.37359298 -405.91263725 347.38460693 C-385.6434821 347.4259981 -365.37432374 347.46497266 -345.10515978 347.50179206 C-279.42455875 347.62118307 -213.74404185 347.76044276 -148.06359053 347.94668853 C-135.9053033 347.98114733 -123.74701538 348.01472399 -111.58871865 348.04567218 C-86.45105898 348.10995157 -61.31347711 348.18231528 -36.1759361 348.28368908 C-25.86855919 348.32510405 -15.56121763 348.36238162 -5.25378442 348.38657451 C3.26895178 348.40662327 11.79157657 348.43660304 20.31422666 348.48013206 C24.59318591 348.5017246 28.87202545 348.5188077 33.15104032 348.52289772 C37.04350679 348.52674209 40.93566596 348.54438746 44.82802908 348.57270849 C46.87222052 348.58415644 48.91647721 348.58128759 50.96069753 348.57768887 C62.4771579 348.68656885 73.85239419 350.18532255 84.11118674 355.69565845 C84.77884055 356.04523608 85.44649436 356.39481372 86.1343801 356.75498462 C96.31230729 362.24316704 103.57598809 368.56923375 108.86118674 379.00815845 C109.19397132 379.6262337 109.5267559 380.24430896 109.86962485 380.88111377 C113.80378292 389.17715108 113.46130055 397.60550714 113.42759299 406.57065845 C113.43284522 408.28770284 113.43912745 410.00474436 113.44637656 411.72178149 C113.45675327 415.31933159 113.45227154 418.91648574 113.43760276 422.51401782 C113.42397139 426.14851101 113.43054222 429.78194829 113.45811057 433.41636157 C113.61791158 454.52801482 113.15531833 474.43088123 107.86118674 495.00815845 C107.53285124 496.36315222 107.20506111 497.71827836 106.87803245 499.07358813 C106.07630207 502.20838319 105.19282736 505.29257288 104.23618674 508.38315845 C103.89829123 509.48941577 103.56039573 510.59567309 103.21226096 511.73545337 C93.36772233 543.15339278 78.65653373 572.68314308 63.86118674 602.00815845 C60.89118674 602.00815845 57.92118674 602.00815845 54.86118674 602.00815845 C54.74774924 603.18249438 54.63431174 604.35683032 54.51743674 605.5667522 C50.82921695 634.70753043 22.63590017 662.83908395 0.81821799 679.79722095 C-0.15760232 680.52683032 -1.13342263 681.2564397 -2.13881326 682.00815845 C-3.10295144 682.74630786 -3.10295144 682.74630786 -4.08656716 683.49936938 C-46.34768914 715.84080072 -93.77141213 741.0225724 -144.81068826 756.01841235 C-148.25251643 757.04197246 -151.68023419 758.10508686 -155.10756326 759.1761272 C-157.43036221 759.89135336 -159.7532757 760.60620766 -162.07631326 761.32065845 C-163.10426003 761.64630786 -164.13220681 761.97195727 -165.19130349 762.30747485 C-183.65596335 767.90053477 -201.78672898 768.45511397 -220.94684272 768.40596383 C-224.54846358 768.40008805 -228.15003886 768.41174921 -231.75164676 768.42102551 C-238.04681589 768.43486053 -244.34191318 768.43769401 -250.63709474 768.43306613 C-259.99946829 768.42620152 -269.36176973 768.43653316 -278.72413325 768.45002369 C-296.42593403 768.47487678 -314.12770455 768.47945531 -331.82951999 768.47755772 C-345.51012129 768.47618185 -359.19071216 768.48001592 -372.87131143 768.48748279 C-374.84050414 768.48853315 -376.80969685 768.48958077 -378.77888957 768.49062565 C-379.75648681 768.49114499 -380.73408406 768.49166434 -381.74130546 768.49219942 C-383.21047871 768.49297963 -383.21047871 768.49297963 -384.70933223 768.49377561 C-386.18107739 768.49456159 -386.18107739 768.49456159 -387.68255478 768.49536346 C-415.26501764 768.50993913 -442.84747669 768.51823286 -470.42994332 768.51361346 C-471.46888858 768.51344151 -472.50783383 768.51326955 -473.57826227 768.51309239 C-478.84335823 768.51220357 -484.10845417 768.51125876 -489.37355012 768.51029438 C-490.4191021 768.51010334 -491.46465408 768.50991231 -492.54188945 768.50971549 C-494.65625136 768.50932839 -496.77061327 768.50893807 -498.88497517 768.50854451 C-531.74972735 768.50258079 -564.61440901 768.51798802 -597.47914529 768.55015063 C-634.45682317 768.58630816 -671.43445635 768.60554898 -708.41215301 768.60061193 C-712.36318961 768.600142 -716.31422622 768.59973174 -720.26526284 768.59936023 C-721.72437896 768.59920665 -721.72437896 768.59920665 -723.21297217 768.59904997 C-737.83716327 768.59785985 -752.46130576 768.60976085 -767.08548379 768.62850451 C-783.74337413 768.64984528 -800.40116318 768.65348675 -817.05905819 768.63420492 C-825.54541004 768.62485128 -834.03157693 768.62323017 -842.51791215 768.64456058 C-908.09893617 768.80108377 -908.09893617 768.80108377 -936.13881326 763.00815845 C-938.59970647 762.52613229 -941.06063108 762.04426645 -943.52158761 761.56256366 C-959.30096324 758.43578422 -974.62541357 753.77227569 -989.96693826 748.99448657 C-995.66442762 747.22279191 -1001.36221444 745.46400664 -1007.13100076 743.93784595 C-1015.14937949 741.78986511 -1022.74635429 739.08925742 -1030.32631326 735.69565845 C-1031.09636697 735.35325122 -1031.86642068 735.01084399 -1032.65980935 734.65806079 C-1045.49388581 728.74434599 -1057.31497863 721.12143216 -1069.01381326 713.25815845 C-1069.66668313 712.82128711 -1070.319553 712.38441577 -1070.99220681 711.93430591 C-1080.95063822 705.26633842 -1090.71859765 698.42407286 -1100.13881326 691.00815845 C-1101.03471169 690.31077563 -1101.93061013 689.61339282 -1102.85365701 688.8948772 C-1113.28672335 680.67039046 -1123.33025768 671.96379615 -1133.13881326 663.00815845 C-1134.53873513 661.74745532 -1134.53873513 661.74745532 -1135.96693826 660.46128345 C-1145.59323056 651.76426194 -1155.1043897 642.82470745 -1163.47816873 632.89707446 C-1165.06589184 631.0911036 -1166.72329149 629.43271754 -1168.45521951 627.76597095 C-1172.06905889 624.17395885 -1175.1553018 620.33499361 -1178.20131326 616.25815845 C-1179.02768289 615.16277759 -1179.02768289 615.16277759 -1179.87074685 614.04526782 C-1181.03709745 612.49539196 -1182.20045766 610.94326167 -1183.36098123 609.38901782 C-1184.54417441 607.80449435 -1185.7306917 606.22244752 -1186.92055154 604.64292407 C-1211.60635397 571.87260577 -1230.99251964 536.55560564 -1245.13881326 498.00815845 C-1245.46107888 497.14948169 -1245.78334451 496.29080493 -1246.11537576 495.40610766 C-1253.61856625 475.16523736 -1255.99794046 453.15641595 -1258.0633738 431.78330493 C-1258.68504714 425.66859233 -1259.78378335 419.92099861 -1261.43324685 413.99692798 C-1263.17178745 406.63249404 -1263.28057446 399.3989754 -1263.25906777 391.87180591 C-1263.26034941 390.21996476 -1263.26034941 390.21996476 -1263.26165694 388.53475308 C-1263.26330007 384.85594962 -1263.25780948 381.17719206 -1263.25233865 377.49839282 C-1263.2520565 374.85685125 -1263.25217105 372.21531247 -1263.25278115 369.57377124 C-1263.25330447 363.89244624 -1263.25017778 358.21113277 -1263.24454331 352.52981067 C-1263.23640224 344.31566191 -1263.23381042 336.10151871 -1263.23255532 327.88736635 C-1263.2303689 314.55913765 -1263.22371992 301.23091507 -1263.21425271 287.9026897 C-1263.205068 274.95867959 -1263.19799234 262.01467115 -1263.1937449 249.07065845 C-1263.19348217 248.27224542 -1263.19321945 247.47383239 -1263.19294877 246.65122503 C-1263.19164369 242.64565902 -1263.19037999 238.640093 -1263.18913686 234.63452697 C-1263.17877701 201.425733 -1263.16116984 168.21694654 -1263.13881326 135.00815845 C-1263.7289514 135.0787166 -1264.31908955 135.14927475 -1264.92711067 135.22197104 C-1269.05130715 135.70049103 -1273.11498034 136.13271999 -1277.27168679 136.14860034 C-1278.18241448 136.15431048 -1279.09314218 136.16002063 -1280.03146768 136.16590381 C-1280.99791711 136.16702167 -1281.96436654 136.16813952 -1282.96010232 136.16929126 C-1284.52545976 136.17673862 -1284.52545976 136.17673862 -1286.12244058 136.18433642 C-1289.54978002 136.19885391 -1292.97707321 136.20574222 -1296.40443826 136.21128345 C-1297.58250794 136.21411082 -1298.76057763 136.2169382 -1299.9743464 136.21985126 C-1306.20739359 136.23480087 -1312.44041789 136.24405732 -1318.67348123 136.24839282 C-1325.08305031 136.25387447 -1331.49240666 136.27790848 -1337.90190911 136.30636477 C-1342.85728451 136.32506498 -1347.81260937 136.33020066 -1352.76801705 136.3317287 C-1355.12970797 136.33473853 -1357.49139836 136.34271001 -1359.85305429 136.35591388 C-1390.98204419 136.51755033 -1390.98204419 136.51755033 -1405.13881326 126.00815845 C-1406.51359841 125.05296313 -1406.51359841 125.05296313 -1407.91615701 124.07847095 C-1420.18478264 114.9587352 -1430.25240973 99.13790724 -1433.13881326 84.00815845 C-1433.68313087 78.25415417 -1433.82422584 72.5355192 -1433.82631326 66.75815845 C-1433.82772317 65.96224292 -1433.82913308 65.16632739 -1433.83058572 64.34629321 C-1433.76774554 47.66767334 -1431.5494945 31.47053975 -1419.38881326 19.00815845 C-1406.33844025 7.07357076 -1388.11827315 2.9291828 -1370.83504128 2.85666919 C-1370.1382569 2.85243819 -1369.44147251 2.8482072 -1368.72357345 2.84384799 C-1366.38509631 2.83086145 -1364.04665374 2.82479049 -1361.70814919 2.81870532 C-1359.99141528 2.81070108 -1358.27468323 2.80228737 -1356.55795312 2.79350543 C-1351.7736291 2.77036314 -1346.98929986 2.75348694 -1342.20494676 2.73766589 C-1337.99584994 2.72297326 -1333.78677125 2.70473288 -1329.57768846 2.68650985 C-1317.62439627 2.63478816 -1305.67108514 2.59055752 -1293.7177527 2.54930282 C-1285.04790917 2.51937798 -1276.3780724 2.48803026 -1267.70823804 2.45559019 C-1177.45192852 2.11819742 -1087.19526209 1.88778164 -309.23481736 0.44988734 C-306.44898198 0.4456549 -303.6631466 0.44142123 -300.87731123 0.43718743 C-251.09845197 0.36154515 -201.31959133 0.2868745 -151.54072859 0.21356113 C-143.35642666 0.20150547 -135.17212478 0.18942072 -126.98782301 0.17725706 C-126.18803115 0.17606846 -125.3882393 0.17487985 -124.56421133 0.17365523 C-123.76714231 0.17247063 -122.97007329 0.17128604 -122.14885067 0.17006554 C-106.80793107 0.1472665 -91.46701119 0.12467435 -76.12609064 0.10252561 C-69.19329748 0.09251329 -62.26050448 0.08241817 -55.32771182 0.07206702 C-39.97426824 0.04920783 -24.62082472 0.02862167 -9.26737335 0.01176032 C-6.17824832 0.00820385 -3.08912427 0.0041618 0 0 Z M-1124.13881326 135.00815845 C-1124.46881326 160.08815845 -1124.79881326 185.16815845 -1125.13881326 211.00815845 C-1126.12881326 212.98815845 -1127.11881326 214.96815845 -1128.13881326 217.00815845 C-1129.18383889 220.85388326 -1129.3153607 224.58804737 -1129.42006326 228.56284595 C-1129.45683175 229.88038363 -1129.49360024 231.19792132 -1129.53148293 232.5553844 C-1129.56735633 233.99797335 -1129.6031302 235.44056477 -1129.63881326 236.88315845 C-1129.67919744 238.38992769 -1129.719946 239.89668721 -1129.76103616 241.40343738 C-1129.86984261 245.43632775 -1129.97315704 249.46934066 -1130.07510018 253.5024097 C-1130.16023517 256.85065326 -1130.24809305 260.19882319 -1130.3359282 263.54699683 C-1130.55267575 271.81260978 -1130.76360445 280.07835843 -1130.97083116 288.34421515 C-1131.08689179 292.96811117 -1131.20562728 297.59192507 -1131.32728982 302.21567798 C-1131.63591884 313.97316297 -1131.90382428 325.73021965 -1132.09590554 337.49021411 C-1132.14004785 340.08060782 -1132.19061869 342.67082548 -1132.2418406 345.26108813 C-1132.65686727 367.23916558 -1132.10259759 388.31292485 -1128.13881326 410.00815845 C-1127.92450662 411.18765063 -1127.71019998 412.36714282 -1127.48939919 413.5823772 C-1123.51425716 434.80627964 -1117.66444475 455.44779828 -1109.82631326 475.57065845 C-1109.50098611 476.41628345 -1109.17565896 477.26190845 -1108.84047341 478.13315845 C-1108.03001584 480.13046272 -1107.09512917 482.0764427 -1106.13881326 484.00815845 C-1105.14881326 484.33815845 -1104.15881326 484.66815845 -1103.13881326 485.00815845 C-1101.4281199 487.4063518 -1101.4281199 487.4063518 -1099.54896951 490.5980022 C-1099.20837502 491.16954028 -1098.86778054 491.74107837 -1098.51686502 492.32993579 C-1097.7852956 493.55858767 -1097.05744396 494.78945929 -1096.33293557 496.02228808 C-1094.43467801 499.2486758 -1092.50479009 502.45602239 -1090.57631326 505.66440845 C-1090.00343324 506.61923366 -1090.00343324 506.61923366 -1089.41897988 507.59334826 C-1079.77532914 523.62143918 -1069.19208081 538.81896699 -1056.42787576 552.53159595 C-1054.4929811 554.62498027 -1052.6530442 556.75898052 -1050.82631326 558.94565845 C-1024.5457467 588.94574835 -987.28601466 607.18947888 -951.62880349 623.40439868 C-949.3136059 624.46830445 -947.00812784 625.553637 -944.71327615 626.66074634 C-938.11577247 629.82311003 -931.86578346 632.21777961 -924.70131326 633.69565845 C-923.77391335 633.89642993 -922.84651345 634.09720141 -921.89101052 634.30405688 C-911.72621547 636.42924423 -901.46152132 637.90424084 -891.13881326 639.00815845 C-889.91569471 639.14205925 -889.91569471 639.14205925 -888.66786671 639.27866513 C-876.73556703 640.38432668 -864.75989371 640.15003884 -852.7885325 640.14187121 C-850.19238073 640.14374082 -847.59622924 640.14604213 -845.0000782 640.14873654 C-839.36728778 640.15387024 -833.73450595 640.15531128 -828.10171342 640.15428042 C-819.72472178 640.15275114 -811.34773959 640.15692695 -802.97074979 640.16215505 C-787.13415993 640.17181288 -771.29757332 640.17463873 -755.46098086 640.17521211 C-743.22466196 640.17567223 -730.98834433 640.17773357 -718.75202584 640.18091273 C-715.2255594 640.18181033 -711.69909295 640.18270015 -708.1726265 640.18358761 C-707.29584008 640.18380866 -706.41905366 640.18402971 -705.51569796 640.18425745 C-680.8604182 640.19040975 -656.20513889 640.19435823 -631.54985833 640.19391418 C-630.62076218 640.1938986 -629.69166602 640.19388302 -628.73441544 640.19386697 C-624.02575265 640.19378386 -619.31708986 640.19368482 -614.60842708 640.19358226 C-613.6733325 640.19356231 -612.73823792 640.19354237 -611.77480714 640.19352182 C-609.8838167 640.19348138 -607.99282625 640.19343958 -606.1018358 640.19339643 C-576.70221005 640.19278411 -547.30259586 640.20028296 -517.90297341 640.21396899 C-484.84268301 640.22935292 -451.78240019 640.23793378 -418.72210598 640.23700577 C-415.19186727 640.23693114 -411.66162856 640.23688244 -408.13138986 640.23685145 C-407.26221198 640.2368398 -406.39303411 640.23682815 -405.49751751 640.23681614 C-391.55101884 640.23678545 -377.60453025 640.24315304 -363.65803457 640.25178372 C-349.62186451 640.26028974 -335.58570908 640.26122721 -321.54953787 640.2546744 C-313.2274615 640.250998 -304.90542979 640.25275343 -296.58335823 640.26261674 C-290.34450014 640.26938154 -284.1056888 640.26551151 -277.86683282 640.25774352 C-275.36140932 640.2562178 -272.85598088 640.25798916 -270.3505632 640.26360359 C-249.76440288 640.30663848 -229.17860907 639.50970323 -208.82631326 636.19565845 C-207.75349099 636.02244067 -206.68066873 635.8492229 -205.57533669 635.6707561 C-188.01505573 632.73359938 -172.90905976 628.04505494 -156.85707498 620.30015063 C-153.34801479 618.63229124 -149.79830718 617.06657523 -146.2418406 615.50303149 C-132.92438734 609.63265305 -120.11040762 603.7646003 -109.13881326 594.00815845 C-107.7949656 592.84413501 -107.7949656 592.84413501 -106.42396951 591.65659595 C-97.9723331 584.14655124 -90.31058566 575.92169993 -82.64418435 567.62119555 C-78.7880125 563.48922549 -76.70834547 563.54714543 -71.13881326 563.00815845 C-71.13881326 560.36815845 -71.13881326 557.72815845 -71.13881326 555.00815845 C-68.49881326 555.00815845 -65.85881326 555.00815845 -63.13881326 555.00815845 C-63.07693826 553.79128345 -63.01506326 552.57440845 -62.95131326 551.32065845 C-62.78540046 548.05770667 -62.30401288 547.1687371 -59.90443826 544.83628345 C-56.27474577 541.12456401 -54.36161011 537.06734619 -52.07631326 532.44565845 C-48.28176161 524.97080955 -44.26947743 517.71773069 -39.88881326 510.57065845 C-31.00394477 496.59619781 -31.00394477 496.59619781 -26.13881326 481.00815845 C-49.07333721 480.89437758 -71.9978594 481.20452027 -94.9292798 481.54808259 C-98.03931822 481.59465335 -101.14936282 481.64079051 -104.25940919 481.68682742 C-114.05980436 481.83211264 -123.86016918 481.97925742 -133.6604982 482.12893879 C-144.8470953 482.29975025 -156.0337628 482.46412051 -167.22053581 482.6229831 C-175.95960191 482.74750308 -184.69856614 482.87803885 -193.43747896 483.01288259 C-198.6163398 483.09266029 -203.79520658 483.17010308 -208.97419572 483.24111056 C-237.16582765 483.63042011 -265.14775136 484.66307051 -293.23128438 487.30902553 C-310.76793071 488.88992158 -328.36463943 489.15703465 -345.96048379 489.14187121 C-348.06305694 489.14374517 -350.16562974 489.14604817 -352.26820201 489.14873654 C-357.97804361 489.1547874 -363.68787043 489.15472902 -369.3977145 489.15354216 C-375.58085093 489.15333647 -381.76398282 489.15887241 -387.94711709 489.16359973 C-400.02831539 489.17186673 -412.10950749 489.17466567 -424.19070787 489.17521211 C-434.00564442 489.17567315 -443.82057941 489.17773922 -453.63551545 489.18091273 C-456.46903823 489.18181034 -459.302561 489.18270016 -462.13608378 489.18358761 C-462.84061148 489.18380866 -463.54513918 489.18402971 -464.2710162 489.18425745 C-484.0504325 489.19039996 -503.82984826 489.19435913 -523.60926557 489.19391418 C-524.35311442 489.1938986 -525.09696327 489.19388302 -525.86335299 489.19386697 C-529.63288892 489.19378387 -533.40242485 489.19368483 -537.17196078 489.19358226 C-537.92052079 489.19356231 -538.66908079 489.19354237 -539.44032444 489.19352182 C-540.95408239 489.19348138 -542.46784035 489.19343958 -543.98159831 489.19339643 C-567.58226789 489.19278241 -591.18292316 489.20031839 -614.78358865 489.21396899 C-641.33320828 489.22931917 -667.8828185 489.23793612 -694.43244284 489.23700577 C-697.26062159 489.23693114 -700.08880033 489.23688243 -702.91697907 489.23685145 C-703.61329309 489.2368398 -704.30960711 489.23682815 -705.02702156 489.23681614 C-716.23675826 489.23678535 -727.44648251 489.2431728 -738.65621551 489.25178372 C-749.90498571 489.26024653 -761.15373785 489.26108852 -772.40251107 489.2546744 C-778.49732687 489.25139821 -784.5920974 489.25139228 -790.68690896 489.26002765 C-796.26041123 489.2678437 -801.83383196 489.26651182 -807.40733211 489.25774352 C-809.4282848 489.25619783 -811.44924342 489.25806449 -813.4701891 489.26360359 C-816.20777199 489.27061291 -818.94506476 489.26541024 -821.68263745 489.25704741 C-822.47501253 489.26201559 -823.26738761 489.26698377 -824.08377406 489.2721025 C-829.4010226 489.23754108 -833.2999506 488.8470211 -837.13881326 485.00815845 C-839.02556296 484.61638978 -839.02556296 484.61638978 -841.21107888 484.53745532 C-842.05376321 484.48399951 -842.89644753 484.4305437 -843.76466775 484.37546802 C-844.68219827 484.32644336 -845.59972878 484.2774187 -846.54506326 484.22690845 C-847.49836526 484.16789355 -848.45166726 484.10887866 -849.4338572 484.04807544 C-852.50171974 483.85932425 -855.57012609 483.68294794 -858.63881326 483.50815845 C-881.70103679 482.15724879 -881.70103679 482.15724879 -892.31459451 480.99253345 C-893.40755837 480.87391955 -893.40755837 480.87391955 -894.52260232 480.75290942 C-899.76100611 480.14410507 -904.29436284 479.02940718 -909.13881326 477.00815845 C-910.25256326 476.59694751 -911.36631326 476.18573657 -912.51381326 475.7620647 C-927.36348418 470.21981364 -939.45399493 462.6671491 -951.13881326 452.00815845 C-951.86197732 451.36749438 -952.58514138 450.72683032 -953.33021951 450.0667522 C-964.94495073 439.25476697 -966.70130446 424.60751643 -967.27124429 409.49710917 C-967.37254228 405.54717278 -967.4469372 401.59723935 -967.51186013 397.64658618 C-967.5396349 396.13175222 -967.56774063 394.61692429 -967.59614682 393.10210204 C-967.67213891 388.99365361 -967.74316359 384.88513317 -967.81312609 380.77657819 C-967.87319208 377.28265293 -967.93601134 373.78877928 -967.99882871 370.29490256 C-968.1671281 360.93171346 -968.32961422 351.56843186 -968.48918563 342.20509028 C-968.60517345 335.40011136 -968.72294498 328.59516528 -968.84160256 321.79023242 C-969.92532087 259.52876694 -970.68428487 197.27854761 -971.13881326 135.00815845 C-1021.62881326 135.00815845 -1072.11881326 135.00815845 -1124.13881326 135.00815845 Z " fill="#000000" transform="translate(1433.1388132572174,914.9918415546417)"/>
<path d="M0 0 C1.13176935 -0.00205263 2.26353869 -0.00410527 3.42960408 -0.0062201 C7.23785855 -0.01189323 11.04607688 -0.01043243 14.85433483 -0.00901413 C17.60643504 -0.01104806 20.35853289 -0.01457203 23.11063164 -0.01801753 C29.89201789 -0.02559172 36.67339626 -0.02779031 43.4547863 -0.02834659 C51.57895443 -0.02926092 59.7031153 -0.035931 67.82728031 -0.04269341 C87.47448616 -0.0587566 107.12169125 -0.0646591 126.76890249 -0.06944216 C136.0766001 -0.07177992 145.3842971 -0.075383 154.69199423 -0.07913754 C186.59106661 -0.09197945 218.49013865 -0.10269325 250.38921356 -0.10614014 C252.39213368 -0.10636177 254.39505379 -0.10658355 256.39797391 -0.10680549 C258.40562442 -0.10702613 260.41327493 -0.10724661 262.42092544 -0.10746694 C266.44830438 -0.10790947 270.47568331 -0.10835659 274.50306225 -0.10880661 C275.5016193 -0.108916 276.50017634 -0.10902539 277.5289927 -0.1091381 C309.83036874 -0.11276018 342.13172222 -0.12864475 374.43308963 -0.15199697 C408.6284912 -0.17667291 442.8238799 -0.19031677 477.01929063 -0.19150805 C480.78443667 -0.19167949 484.5495827 -0.19189491 488.31472874 -0.19214249 C489.70523324 -0.19222614 489.70523324 -0.19222614 491.12382875 -0.19231148 C505.95808597 -0.19345588 520.79231984 -0.20442641 535.62656921 -0.21902954 C550.58682024 -0.23349997 565.54704179 -0.23657294 580.50729791 -0.22858956 C588.59136552 -0.22456412 596.67536193 -0.22514079 604.75941944 -0.23964691 C670.44783408 -0.35212373 736.70666022 1.66699911 799.74549389 22.13142776 C800.68328686 22.43129593 801.62107983 22.73116409 802.58729076 23.04011917 C829.77087256 31.81215896 856.28924593 43.55831688 880.05237865 59.4898262 C884.39634533 62.37146227 888.58174251 64.45303502 893.50330639 66.20955276 C902.71764005 69.99802445 909.97163072 77.81769729 917.08973217 84.56843948 C919.18374314 86.54512161 921.30290345 88.49327763 923.42493725 90.43977737 C925.5940368 92.43084419 927.75416839 94.43149499 929.91346264 96.43318558 C931.21728952 97.64179695 932.52207997 98.84936921 933.82752514 100.05623245 C950.51365794 115.50498329 950.51365794 115.50498329 957.74549389 124.13142776 C958.46607983 124.98736526 959.18666576 125.84330276 959.92908764 126.72517776 C964.42470782 132.14797091 968.74845232 137.69196387 973.01258373 143.29695511 C975.68850293 146.80229521 978.46216747 150.19847943 981.30799389 153.56892776 C996.31650907 171.95043677 1005.98035167 194.28319421 1016.30799389 215.50642776 C1016.87929028 216.67504349 1017.45058666 217.84365921 1018.03919506 219.04768753 C1024.38052205 232.20859539 1028.81505346 244.39917726 1030.55799389 258.88142776 C1031.09336973 263.23602541 1031.7512167 267.36691461 1032.9354353 271.59163284 C1037.36258017 287.64728827 1037.47809495 303.39764113 1037.32197094 319.89925003 C1037.30325524 322.80451504 1037.31817415 325.70922527 1037.33308029 328.61448193 C1037.34376477 331.46746466 1037.33461405 334.32013256 1037.31969547 337.17308617 C1037.31219406 339.14404543 1037.319265 341.11504372 1037.32693005 343.08600235 C1037.17167626 355.13670765 1034.65256296 366.77393801 1028.99549389 377.50642776 C1028.65042797 378.17359818 1028.30536205 378.84076859 1027.94983959 379.52815628 C1023.08907065 388.59313173 1016.36405236 394.76172782 1008.31971264 401.06111526 C1006.2013195 402.76483054 1004.3877631 404.50787855 1002.49549389 406.44392776 C989.79237754 417.41064691 965.56881678 414.27601374 950.05848217 414.25841141 C947.84322331 414.25956494 945.62796464 414.26115403 943.41270638 414.26313865 C937.33363209 414.26730903 931.25457354 414.2652506 925.1754992 414.26215243 C919.27469166 414.26011888 913.37388743 414.26279199 907.47308034 414.2652998 C894.5862586 414.27058065 881.6994418 414.27009778 868.81261957 414.26722089 C857.35859303 414.26467867 845.90456827 414.2640604 834.4505415 414.26524353 C833.29882414 414.26535811 833.29882414 414.26535811 832.12383977 414.265475 C829.00189297 414.26578664 825.87994618 414.26610506 822.75799938 414.26643476 C793.31111008 414.26950612 763.86422382 414.26671623 734.41733499 414.26133787 C709.76158223 414.25686776 685.10583416 414.25665898 660.45008144 414.26134409 C580.85557068 414.27644847 501.2609815 414.28604265 94.74549389 413.13142776 C94.74934597 414.396129 94.75319805 415.66083023 94.75716686 416.96385574 C94.76028406 418.66115172 94.76330524 420.35844788 94.76624584 422.05574417 C94.7690279 422.88477753 94.77180996 423.71381088 94.77467632 424.56796646 C94.78587698 433.23041939 94.41390718 441.8590624 93.93299389 450.50642776 C93.8898103 451.30548538 93.8466267 452.104543 93.80213451 452.92781448 C93.05981141 466.42141961 91.61644375 479.64141942 89.24290943 492.94930935 C87.91149573 500.86516815 87.44146483 508.52264137 87.42664623 516.54085159 C87.4115778 518.44564537 87.4115778 518.44564537 87.39620495 520.38891983 C87.36922684 523.82604454 87.35385281 527.26312906 87.34077692 530.70033097 C87.3250032 534.30913855 87.29825953 537.91786565 87.27274609 541.52661514 C87.22620769 548.34018369 87.18934404 555.1537678 87.15607321 561.96741265 C87.11047517 571.1889017 87.04969458 580.41029038 86.98982525 589.63169575 C86.89608117 604.13153956 86.82080558 618.63147801 86.74549389 633.13142776 C87.37432214 633.1196023 88.0031504 633.10777684 88.65103406 633.09559304 C136.62037834 632.20308442 184.58195594 631.93082734 232.55876919 631.83440928 C239.98596492 631.81938802 247.41315398 631.80234065 254.84034252 631.78411674 C256.46981754 631.78012018 256.46981754 631.78012018 258.13221125 631.77604288 C260.34873881 631.7706 262.56526636 631.7651543 264.78179391 631.75970582 C290.55925937 631.6966574 316.33674146 631.64292134 342.11423152 631.59107445 C350.63093643 631.57392063 359.14764035 631.55633259 367.66434383 631.53848648 C439.57191076 631.38787565 511.47950118 631.25920103 583.38714109 631.14890657 C592.17812145 631.13541581 600.96910143 631.12169282 609.76008129 631.10787582 C666.66219747 631.01863569 723.5642962 630.94308921 780.46647453 630.90842342 C783.79500566 630.90638334 787.12353678 630.9043412 790.4520679 630.90229296 C792.65735987 630.90093762 794.86265184 630.89959286 797.06794382 630.89825875 C813.48135622 630.88816057 829.89474655 630.87006041 846.30814648 630.84770584 C864.87678626 630.82245481 883.44539905 630.80777486 902.0140568 630.80758911 C912.35221851 630.80720382 922.69029695 630.79874604 933.02843924 630.7784857 C939.9136822 630.76584189 946.79887144 630.76418145 953.68412201 630.77146686 C957.59939796 630.775313 961.5145143 630.77449308 965.42977011 630.76034343 C969.64823035 630.74521808 973.86632926 630.75348221 978.08480358 630.76393509 C979.89272294 630.75185075 979.89272294 630.75185075 981.73716593 630.73952228 C999.35486695 630.84169377 1016.06836362 636.47839851 1028.74549389 649.13142776 C1030.24564128 651.12075366 1031.52182074 653.08482014 1032.71033764 655.27205276 C1033.70302927 657.20472355 1033.70302927 657.20472355 1035.28097057 658.901371 C1037.1013208 661.67325198 1037.15398439 663.37215878 1037.21302319 666.67171097 C1037.23861813 667.78419708 1037.26421307 668.8966832 1037.29058361 670.04288101 C1037.30019619 671.24385925 1037.30980877 672.44483749 1037.31971264 673.68220901 C1037.33444118 674.92834473 1037.34916973 676.17448044 1037.3643446 677.45837784 C1037.38831793 680.10241094 1037.40487766 682.74545541 1037.41126537 685.38948441 C1037.4241467 689.39124446 1037.51279589 693.39026408 1037.59510326 697.39119339 C1037.75830783 712.98028157 1037.2793964 724.49631367 1026.60755444 736.54524612 C1025.36060386 737.81672045 1024.07152692 739.04812862 1022.74549389 740.23689651 C1020.45796019 742.40379856 1018.64875377 744.74724726 1016.74549389 747.25642776 C1009.37840257 756.58330842 1000.44677815 761.13239733 988.74549389 763.13142776 C986.48305397 763.27601814 984.21743939 763.37395569 981.95137358 763.44093698 C981.28238253 763.46122242 980.61339148 763.48150785 979.92412798 763.502408 C977.69040556 763.56768789 975.45657848 763.62533427 973.22261333 763.68166637 C972.43571746 763.7025627 971.64882158 763.72345902 970.83808038 763.74498857 C950.97828086 764.26449258 931.11811566 764.30192601 911.25269922 764.32357237 C905.7902103 764.33059395 900.32773329 764.34315367 894.86525297 764.35494798 C885.32176642 764.37481581 875.77827894 764.39127016 866.23478222 764.40538406 C852.02915272 764.42640601 837.82353666 764.45285941 823.61791836 764.48033358 C799.63924518 764.52663628 775.66056578 764.56836159 751.68188 764.60754967 C727.77527022 764.64662735 703.8686646 764.68747818 679.96206188 764.73066902 C678.44900373 764.7334004 676.93594558 764.73613167 675.42288743 764.73886282 C669.33700108 764.74985135 663.25111475 764.76085292 657.16522845 764.77187055 C640.13725846 764.80269344 623.10928791 764.83320339 606.08131695 764.86348248 C605.3055561 764.86486207 604.52979525 764.86624166 603.7305265 764.86766306 C579.00136393 764.91161995 554.27219923 764.95423014 529.54303265 764.99586201 C528.74133306 764.99721171 527.93963348 764.99856141 527.11363997 764.99995201 C514.10445312 765.02184753 501.09526613 765.04365594 488.08607913 765.06545988 C437.1541849 765.1508291 386.22229787 765.23954499 335.29041576 765.33186722 C333.69822864 765.33475274 332.10604153 765.33763818 330.51385441 765.34052354 C328.12753064 765.34484806 325.74120687 765.34917262 323.3548831 765.3534974 C314.62524123 765.36931815 305.89559935 765.38513189 297.16595745 765.40093708 C296.38208 765.40235661 295.59820256 765.40377614 294.79057125 765.40523868 C251.58276446 765.48347635 208.37495324 765.55916989 165.16714048 765.63403219 C163.62403065 765.63670618 162.08092081 765.63938017 160.53781097 765.64205418 C158.99829452 765.64472176 157.45877806 765.64738931 155.9192616 765.65005682 C155.15857973 765.65137487 154.39789785 765.65269291 153.61416501 765.6540509 C149.78559143 765.66068427 145.95701783 765.66731501 142.12844424 765.67394106 C122.10828636 765.70859629 102.08812989 765.74396033 82.06797444 765.77998918 C13.28890874 765.9037397 -55.49016946 766.02024362 -288.09076127 766.21021206 C-288.89512068 766.21043811 -289.69948009 766.21066415 -290.52821403 766.21089705 C-297.03253274 766.21271835 -297.03253274 766.21271835 -300.23407918 766.21359045 C-312.17197639 766.21688446 -324.10987033 766.22273753 -336.04776573 766.22999966 C-349.51098841 766.238163 -362.97420674 766.24265064 -376.43743201 766.24225629 C-383.31433575 766.24213554 -390.19123032 766.24352338 -397.0681318 766.24939112 C-403.39181828 766.25460173 -409.71548738 766.25507743 -416.03917503 766.25188091 C-418.32134142 766.25152643 -420.60350886 766.25284182 -422.88567302 766.25605211 C-473.54365593 766.32302497 -473.54365593 766.32302497 -493.54747486 746.91658401 C-506.23547362 733.86240925 -507.39165589 721.18172824 -508.36974049 703.66926956 C-508.50376298 701.33188806 -508.65995215 698.99665698 -508.81700611 696.66072464 C-509.91435381 678.69631968 -508.18055281 663.47957552 -496.73888111 648.89705276 C-484.43605382 635.20145258 -465.30977297 630.52028538 -447.63707447 629.01668167 C-446.1316844 628.888329 -446.1316844 628.888329 -444.59588242 628.75738335 C-434.01106085 627.92844653 -423.49103333 627.97314646 -412.88341236 628.15486526 C-410.85363479 628.18114203 -408.82384381 628.20639946 -406.79404163 628.23070145 C-401.53835558 628.29628159 -396.28296401 628.37538538 -391.02751637 628.45766068 C-385.62998434 628.53964824 -380.23228336 628.60835684 -374.83458424 628.67830276 C-364.30768662 628.81661245 -353.7810744 628.97019819 -343.25450611 629.13142776 C-340.68825445 613.38273033 -339.80988504 598.08417125 -339.82213306 582.1436348 C-339.81309097 579.72662234 -339.80275787 577.30961443 -339.79124928 574.89261246 C-339.76675688 569.07359166 -339.75546642 563.25465959 -339.75037185 557.43559201 C-339.74369102 550.65062416 -339.72016188 543.86574375 -339.69577672 537.08082019 C-339.65274315 524.98605262 -339.62264359 512.89129013 -339.60094166 500.79646683 C-339.57986106 489.06369411 -339.55252501 477.33096277 -339.51695728 465.59822464 C-339.51475846 464.87219064 -339.51255963 464.14615664 -339.51029418 463.39812161 C-339.49922277 459.7549778 -339.48803029 456.11183437 -339.47677767 452.46869111 C-339.3839252 422.35630607 -339.31239415 392.24390161 -339.25450611 362.13142776 C-337.60450611 362.13142776 -335.95450611 362.13142776 -334.25450611 362.13142776 C-334.21204762 361.37063919 -334.16958912 360.60985062 -334.125844 359.82600784 C-333.55254433 351.03695941 -332.29622273 342.47352073 -330.69200611 333.81892776 C-330.56167988 333.11066849 -330.43135365 332.40240921 -330.29707813 331.67268753 C-322.54598461 289.86710446 -310.1078103 248.72973784 -290.23155689 211.00008011 C-289.20651107 209.03963515 -288.21188766 207.06554165 -287.21934986 205.08845901 C-276.69300952 184.36495337 -263.24828479 164.86949206 -248.25450611 147.13142776 C-247.81993092 146.61725296 -247.38535572 146.10307816 -246.93761158 145.5733223 C-244.70432431 142.93225184 -242.46732476 140.29461013 -240.22325611 137.66267776 C-238.57444499 135.72626317 -236.96957948 133.77005193 -235.39464283 131.77254105 C-229.46016798 124.30208447 -222.98087805 117.55014815 -216.21690845 110.83308792 C-214.38203342 109.0089403 -212.55811279 107.17432904 -210.73497486 105.33845901 C-203.87871916 98.4745018 -196.86709972 92.15540337 -189.25450611 86.13142776 C-188.15239108 85.19698648 -187.05607479 84.25559841 -185.96934986 83.30330276 C-162.55000451 62.88137011 -135.47359247 46.91352597 -108.25450611 32.13142776 C-106.91525074 31.39738724 -106.91525074 31.39738724 -105.5489397 30.64851761 C-77.82117584 15.50722438 -49.34687723 6.51544774 -18.25450611 1.13142776 C-17.27478063 0.95929425 -16.29505515 0.78716074 -15.28564101 0.60981107 C-10.20587399 -0.10297919 -5.12003706 -0.00863385 0 0 Z M109.89973438 128.40384316 C106.33346485 128.43658053 102.76723402 128.46371852 99.20087922 128.48517394 C81.6709668 128.5953722 64.24895239 129.0197972 46.7773695 130.52934647 C46.0694409 130.59005172 45.36151231 130.65075698 44.63213133 130.71330179 C-15.40679037 135.98260252 -67.09778364 156.50606713 -115.25450611 192.13142776 C-115.97501148 192.66211868 -116.69551685 193.1928096 -117.43785572 193.73958206 C-118.14047535 194.26076614 -118.84309498 194.78195023 -119.56700611 195.31892776 C-120.19349049 195.78299026 -120.81997486 196.24705276 -121.46544361 196.72517776 C-128.42017891 202.19178193 -133.77616175 209.25510079 -139.25450611 216.13142776 C-140.14356969 217.22929408 -141.03290018 218.3269443 -141.92247486 219.42439651 C-172.84669883 257.83958157 -205.66225842 316.37413609 -204.25450611 367.13142776 C-205.57450611 367.13142776 -206.89450611 367.13142776 -208.25450611 367.13142776 C-208.9792095 370.39132755 -209.38104126 373.41175064 -209.38872719 376.74915791 C-209.39318503 377.65187902 -209.39764288 378.55460013 -209.40223581 379.48467642 C-209.40205144 380.46735745 -209.40186708 381.45003847 -209.40167713 382.46249771 C-209.40535382 383.51342053 -209.40903051 384.56434335 -209.41281861 385.64711231 C-209.42384518 389.17387149 -209.42769748 392.7006012 -209.43150806 396.22737503 C-209.4377732 398.75361093 -209.44442005 401.2798459 -209.45142078 403.80607986 C-209.47063297 411.38731546 -209.4812437 418.96854588 -209.49014857 426.54979959 C-209.49453462 430.12014582 -209.49990035 433.69049058 -209.50513744 437.26083565 C-209.52214091 449.12747165 -209.53663765 460.99410675 -209.54388618 472.86075306 C-209.54579604 475.93755024 -209.54771638 479.01434741 -209.54967213 482.09114456 C-209.55015587 482.85585581 -209.55063961 483.62056706 -209.55113801 484.40845137 C-209.55944822 496.81150829 -209.58480572 509.21446909 -209.6172528 521.61748398 C-209.65029242 534.35064326 -209.66833186 547.0837536 -209.67153043 559.81695598 C-209.67369766 566.96669195 -209.68247815 574.11628744 -209.7079916 581.26598167 C-209.73191631 587.98583486 -209.73554398 594.70539091 -209.72523022 601.42529297 C-209.72473252 603.89567594 -209.73112133 606.36607101 -209.74478626 608.83641624 C-209.76235823 612.20036651 -209.75547128 615.56339221 -209.7422533 618.92734146 C-209.75322255 619.91225321 -209.7641918 620.89716496 -209.77549344 621.91192251 C-209.74559385 627.11262816 -209.74559385 627.11262816 -207.59266567 631.73743725 C-204.64787421 633.49309646 -202.78165086 633.63443635 -199.35620594 633.63936234 C-198.14944202 633.65064163 -196.94267811 633.66192093 -195.69934559 633.67354202 C-194.36494683 633.66576468 -193.03055043 633.65757199 -191.6961565 633.64900589 C-190.2880986 633.65442751 -188.88004638 633.6615504 -187.47200489 633.67024612 C-183.64696947 633.68849306 -179.82236536 633.68140258 -175.99732232 633.66872978 C-171.98484826 633.65859118 -167.97241073 633.66799951 -163.95993519 633.67427444 C-157.2119483 633.68155593 -150.46413635 633.67195801 -143.71617603 633.65291214 C-135.94204987 633.63122165 -128.16834464 633.63813537 -120.39422899 633.66021776 C-113.70436759 633.67845272 -107.01463198 633.68088842 -100.3247537 633.67046309 C-96.33648075 633.66426213 -92.34840452 633.66329624 -88.36014462 633.67660904 C-84.59988026 633.68828244 -80.84014931 633.67993588 -77.07994175 633.65703201 C-75.06310959 633.64933305 -73.04623162 633.66100786 -71.02942371 633.67354202 C-62.4889203 633.59536041 -55.26676811 632.08263172 -47.25450611 629.13142776 C-46.7689274 626.84096217 -46.29101202 624.54929358 -45.81700611 622.25642776 C-45.55017017 620.98025589 -45.28333424 619.70408401 -45.00841236 618.38924026 C-43.45834389 610.19641034 -43.10464368 601.99194483 -43.08092213 593.67171097 C-43.0741898 592.6700323 -43.06745747 591.66835363 -43.06052113 590.63632107 C-43.04645124 588.46196764 -43.03449571 586.28759971 -43.024436 584.11322403 C-43.00801173 580.59642487 -42.98574554 577.07970336 -42.96201038 573.56294632 C-42.92816523 568.49672268 -42.89633466 563.4304927 -42.86607838 558.36424637 C-42.78483172 544.99484216 -42.68280072 531.62560675 -42.57091236 518.25642776 C-42.56528546 517.58152432 -42.55965856 516.90662087 -42.55386114 516.2112658 C-42.32072832 488.45125903 -41.86084203 460.69823826 -41.25450611 432.94392776 C-41.21217309 430.9755547 -41.16986522 429.00718109 -41.1275835 427.03880692 C-40.75730573 409.93218036 -40.35823085 392.82590299 -39.77013111 375.72517776 C-39.73677662 374.69177765 -39.70342213 373.65837753 -39.66905689 372.59366226 C-39.28640044 362.32773402 -38.05619446 352.24049765 -36.25450611 342.13142776 C-36.08434986 341.17268753 -35.91419361 340.2139473 -35.73888111 339.22615433 C-32.86150014 323.64205345 -29.15362128 312.15127615 -16.25450611 302.13142776 C-14.95513111 301.05828323 -14.95513111 301.05828323 -13.62950611 299.96345901 C-5.56034261 293.33689306 -0.14250249 292.7693394 10.16945362 292.08828449 C10.83834073 292.04389992 11.50722783 291.99951534 12.19638424 291.95378577 C26.45269119 291.02370376 40.67674437 290.82822054 54.96213818 290.82172012 C57.6649184 290.81327334 60.36768648 290.80406109 63.07045996 290.79393107 C68.88737026 290.77362642 74.7042621 290.76024187 80.52120113 290.75172424 C89.17938691 290.73900814 97.83751752 290.71501267 106.49567198 290.68889905 C121.11218954 290.64511422 135.72871542 290.6101143 150.3452673 290.58014107 C164.90670597 290.55023228 179.46812471 290.51596112 194.02954006 290.47624779 C194.94304003 290.4737577 195.85654001 290.47126761 196.7977218 290.46870206 C201.44219264 290.45601619 206.08666325 290.44324942 210.73113377 290.43044788 C243.63840995 290.33985374 276.54570219 290.25771292 309.45301342 290.18098831 C317.40467364 290.16243952 325.35633383 290.14388015 333.30799389 290.12526321 C334.29245115 290.12295836 335.27690842 290.12065351 336.29119772 290.11827881 C358.87639295 290.06532485 381.46157911 290.00890145 404.04676342 289.95149612 C405.48896765 289.94783313 405.48896765 289.94783313 406.96030731 289.94409614 C429.15135798 289.88771699 451.34240613 289.83039923 473.53345203 289.77217579 C475.44817605 289.76715483 477.36290006 289.76213395 479.27762408 289.75711315 C490.68630294 289.72718947 490.68630294 289.72718947 502.09498151 289.69715495 C522.17563725 289.64421102 542.2562941 289.59265538 562.33696651 289.54641914 C608.89470625 289.43908619 655.4523235 289.31299366 702.00987552 289.14148029 C704.80732689 289.13120055 707.6047786 289.12101923 710.40223038 289.11085254 C734.01392666 289.02480713 757.62555016 288.92907582 781.23710937 288.81089531 C783.15327025 288.80131896 785.06943117 288.79175096 786.98559213 288.7821914 C787.92818139 288.77748747 788.87077065 288.77278355 789.84192323 288.76793708 C796.4172982 288.73561377 802.99268219 288.70825985 809.56808829 288.68314159 C817.51086964 288.65273234 825.4535827 288.61552137 833.39628907 288.56941221 C837.44917938 288.54605758 841.50202171 288.5257871 845.55496338 288.51393051 C849.27930106 288.50292908 853.00347674 288.48278581 856.72773008 288.45555356 C858.70482501 288.44339531 860.68197162 288.44077591 862.6591027 288.43856269 C872.85557421 288.38539545 872.85557421 288.38539545 882.74549389 286.13142776 C884.8587431 283.64525222 885.74549389 282.38227408 885.74549389 279.13142776 C889.70549389 279.13142776 893.66549389 279.13142776 897.74549389 279.13142776 C889.90103177 252.11651047 868.83027675 224.33430902 849.74549389 204.13142776 C848.61520222 202.82348205 847.49006078 201.51106528 846.37049389 200.19392776 C830.8510147 182.45738012 812.11891413 168.7498124 791.74549389 157.13142776 C791.15188061 156.78869827 790.55826733 156.44596878 789.94666576 156.09285355 C767.39159466 143.16268243 743.42578462 136.65721107 717.80799389 132.88142776 C716.78770092 132.73028519 715.76740795 132.57914261 714.71619701 132.42341995 C689.41505092 128.98736608 664.03463729 128.71750561 638.55217195 128.53779745 C635.22563855 128.5136713 631.89914336 128.48636428 628.57264042 128.45836639 C546.95378948 127.78300995 465.32666679 127.98105659 383.70584409 128.00196484 C365.88434167 128.00644801 348.0628458 128.00564871 330.2413435 128.00105667 C309.18603724 127.99563337 288.13073481 127.99363625 267.07542795 127.99666893 C264.8066053 127.99698726 262.53778265 127.99730164 260.26896 127.997612 C258.5974455 127.99784341 258.5974455 127.99784341 256.89216303 127.9980795 C249.27097172 127.99892069 241.64978302 127.99751076 234.02859211 127.99513245 C192.65204342 127.98360174 151.27480986 128.02158786 109.89973438 128.40384316 Z " fill="#000000" transform="translate(509.254506111145,-0.13142776489257813)"/>
<path d="M0 0 C0.66 0.33 1.32 0.66 2 1 C-2.29 5.29 -6.58 9.58 -11 14 C-11.66 13.67 -12.32 13.34 -13 13 C-8.66666667 8.66666667 -4.33333333 4.33333333 0 0 Z " fill="#313131" transform="translate(495,299)"/>
<path d="M0 0 C0.66 0.33 1.32 0.66 2 1 C-1.63 4.63 -5.26 8.26 -9 12 C-9 8.47601214 -8.44884893 7.98495633 -6.1875 5.4375 C-5.40439453 4.53837891 -5.40439453 4.53837891 -4.60546875 3.62109375 C-3 2 -3 2 0 0 Z " fill="#323232" transform="translate(20,642)"/>
<path d="M0 0 C3.3 1.65 6.6 3.3 10 5 C9.01 5.495 9.01 5.495 8 6 C6.0546875 5.22265625 6.0546875 5.22265625 3.875 4.0625 C3.15054687 3.68222656 2.42609375 3.30195312 1.6796875 2.91015625 C1.12539063 2.60980469 0.57109375 2.30945313 0 2 C0 1.34 0 0.68 0 0 Z " fill="#676969" transform="translate(441,624)"/>
</svg>
