<?xml version="1.0" encoding="UTF-8"?>
<svg version="1.1" xmlns="http://www.w3.org/2000/svg" width="371" height="404">
<path d="M0 0 C8.12434973 -0.01555309 16.2486984 -0.02785178 24.37305808 -0.03685045 C28.8616941 -0.04188279 33.35031472 -0.04832486 37.83894145 -0.05887628 C41.87489117 -0.06826202 45.9108174 -0.07293239 49.9467777 -0.07373357 C51.37834032 -0.07481511 52.80990297 -0.07757678 54.2414583 -0.08227277 C75.80005425 -0.15029065 75.80005425 -0.15029065 80.29924953 3.4685514 C84.44784183 7.82989202 84.02351505 11.21359279 83.93987453 17.0544889 C83.623373 21.69245356 82.48690686 24.36685059 79.11354673 27.57453287 C73.89994623 31.8323249 70.22667525 32.89485494 63.57451808 32.7525785 C62.68563538 32.75770505 61.79675267 32.76283159 60.88093412 32.76811349 C57.92001095 32.77795024 54.96115469 32.74507559 52.0004214 32.71220374 C49.87119012 32.71051032 47.74195534 32.71146321 45.61272609 32.71485877 C39.84448042 32.71657813 34.07698549 32.68133677 28.30891407 32.63941503 C22.27647523 32.60187168 16.24401861 32.5983798 10.21148098 32.59126258 C-1.20652619 32.57262443 -12.6241881 32.52340095 -24.04204333 32.46316564 C-37.04314186 32.39606877 -50.044257 32.36310343 -63.04548562 32.33299303 C-89.78493188 32.27030132 -116.52407182 32.16478595 -143.26325047 32.0310514 C-143.26325047 37.3110514 -143.26325047 42.5910514 -143.26325047 48.0310514 C-143.59325047 48.0310514 -143.92325047 48.0310514 -144.26325047 48.0310514 C-144.26325047 59.2510514 -144.26325047 70.4710514 -144.26325047 82.0310514 C-141.00270965 83.66132181 -137.40784514 83.16986916 -133.82495701 83.16235328 C-132.49954754 83.16552685 -132.49954754 83.16552685 -131.14736211 83.16876453 C-128.16872671 83.17478472 -125.19013343 83.17376294 -122.21149266 83.1728971 C-120.08302818 83.17592727 -117.95456434 83.17944833 -115.82610142 83.18342566 C-111.2332891 83.19132619 -106.64048459 83.19646392 -102.04766667 83.19971633 C-94.7871672 83.20561578 -87.52671703 83.22214613 -80.26624119 83.24105811 C-77.78270164 83.24739583 -75.29916206 83.25372145 -72.81562245 83.26003528 C-70.94971605 83.26478399 -70.94971605 83.26478399 -69.04611456 83.26962864 C-52.1368939 83.31174 -35.22769585 83.34468308 -18.31842625 83.35697913 C-6.92108738 83.36535232 4.47612991 83.38781663 15.87340796 83.4263348 C21.90764924 83.44612247 27.94170864 83.45849106 33.97598445 83.45350051 C39.6526534 83.44886308 45.32897755 83.46261023 51.00557697 83.49051261 C53.08969606 83.49743992 55.17385069 83.49753447 57.25796878 83.49031234 C60.10256516 83.48145018 62.94601808 83.49707534 65.7905215 83.51879859 C66.61601599 83.51035605 67.44151049 83.50191352 68.29201996 83.49321514 C73.56674171 83.56773798 76.53068776 84.5720331 80.73674953 88.0310514 C84.52501023 92.43470466 84.20291237 97.06043046 84.11174953 102.5935514 C84.09942287 103.49323646 84.08709621 104.39292151 84.07439601 105.31986976 C83.70861197 119.87912338 78.16118191 131.21039048 71.73674953 144.0310514 C71.07674953 144.0310514 70.41674953 144.0310514 69.73674953 144.0310514 C69.63233547 144.60468421 69.5279214 145.17831702 69.42034328 145.76933265 C65.40248061 159.06271829 48.69882662 168.74656623 37.30315578 174.87870765 C22.5833181 182.38215511 7.80662409 184.64207418 -8.56061375 184.53276038 C-10.21364371 184.53655657 -11.86667046 184.54206719 -13.51968968 184.54913306 C-17.95357207 184.56293364 -22.38705972 184.55202888 -26.82091963 184.53542185 C-31.4930133 184.52142456 -36.16508741 184.52804776 -40.83719456 184.53155494 C-48.67605417 184.53424505 -56.5147596 184.52088347 -64.3535825 184.49760413 C-73.37925946 184.47098343 -82.40467922 184.46925776 -91.43038201 184.4809925 C-100.16398955 184.49181969 -108.89750526 184.4855458 -117.63110554 184.47143722 C-121.32529353 184.46572198 -125.01941333 184.4657245 -128.71360219 184.47050261 C-133.07230377 184.4753207 -137.43072831 184.46497373 -141.78937733 184.44354796 C-143.37628825 184.43804572 -144.96322616 184.43745327 -146.55013859 184.44250083 C-171.90286659 184.51295161 -194.17122951 177.20620278 -213.26325047 160.0310514 C-213.81803074 159.53218421 -214.37281102 159.03331702 -214.94440281 158.51933265 C-230.98078135 143.8868569 -242.58270485 125.92387989 -244.93903172 103.95683265 C-245.16148566 101.1953797 -245.16148566 101.1953797 -245.77641881 99.24949622 C-246.41637793 96.33326435 -246.38256273 93.59617665 -246.37677586 90.61015296 C-246.37670033 89.30910621 -246.3766248 88.00805945 -246.37654698 86.66758704 C-246.37144071 85.2522831 -246.36622472 83.83697956 -246.36090672 82.4216764 C-246.35904082 80.97007777 -246.35761773 79.51847852 -246.356619 78.06687903 C-246.35280735 74.25285571 -246.34298862 70.43887067 -246.33191502 66.62486243 C-246.32167182 62.73031611 -246.31711515 58.83576357 -246.3120786 54.94120765 C-246.30136512 47.30447147 -246.28430496 39.66776681 -246.26325047 32.0310514 C-247.07479588 32.04676185 -247.88634129 32.0624723 -248.72247899 32.07865882 C-252.42349771 32.14128047 -256.12440464 32.18012912 -259.82575047 32.2185514 C-261.10256688 32.24368812 -262.37938328 32.26882483 -263.6948911 32.29472327 C-277.43790923 32.40181173 -277.43790923 32.40181173 -283.00543797 27.49589515 C-287.09395818 21.98344204 -287.86367751 18.8136532 -287.26325047 12.0310514 C-286.04328683 7.89673017 -285.02759915 5.69668154 -281.77511609 2.86426902 C-277.10248384 0.42512336 -273.39228119 0.46922477 -268.19840062 0.51206946 C-266.68090134 0.50081759 -266.68090134 0.50081759 -265.1327455 0.4893384 C-261.74032941 0.469035 -258.3485803 0.47717158 -254.95612156 0.48515296 C-252.52012548 0.47641486 -250.08413513 0.46592826 -247.64815342 0.45382667 C-242.38545351 0.43166309 -237.12294709 0.42176854 -231.86021626 0.42293525 C-224.15985473 0.42461944 -216.45967178 0.40409504 -208.75935812 0.37857994 C-196.14412798 0.33739583 -183.52893012 0.31418165 -170.9136411 0.30204749 C-158.86966197 0.29042641 -146.82574825 0.27052047 -134.78180516 0.23857093 C-134.0505599 0.23663645 -133.31931464 0.23470197 -132.56591043 0.23270887 C-128.88633499 0.22293148 -125.20675997 0.21300366 -121.52718508 0.20302081 C-90.53968788 0.11930966 -59.55222271 0.07498286 -28.56463373 0.04400277 C-19.0430784 0.0340497 -9.5215425 0.01833249 0 0 Z M-213.26325047 32.0310514 C-213.32383641 33.30722327 -213.38442235 34.58339515 -213.44684422 35.8982389 C-213.53124615 37.56752155 -213.61589433 39.23679177 -213.70075047 40.9060514 C-213.74006688 41.74780921 -213.77938328 42.58956702 -213.8198911 43.45683265 C-213.88273289 44.66532874 -213.88273289 44.66532874 -213.94684422 45.8982389 C-213.98350194 46.64186683 -214.02015965 47.38549476 -214.0579282 48.15165687 C-214.26325047 50.0310514 -214.26325047 50.0310514 -215.26325047 52.0310514 C-215.39956262 54.96730919 -215.47615173 57.87844296 -215.50153172 60.81620765 C-215.50960347 61.70529319 -215.51767521 62.59437873 -215.52599156 63.51040626 C-215.5398522 65.40439374 -215.55056545 67.29840642 -215.55841649 69.19242835 C-215.56981247 71.09973112 -215.59006148 73.00700526 -215.61993992 74.91410804 C-215.97358424 97.4979525 -212.34884162 116.82280033 -196.93121922 134.33964515 C-184.33454549 147.0469778 -168.27949422 153.25763242 -150.51859105 153.43248272 C-148.29664631 153.43781042 -146.0750213 153.42872257 -143.85309422 153.41923499 C-142.23534365 153.42330912 -140.61759586 153.42865568 -138.99985325 153.43516517 C-134.64032252 153.44874468 -130.28100676 153.44357918 -125.92147267 153.43402791 C-121.33869715 153.42638241 -116.75593889 153.43349041 -112.17316258 153.43818641 C-104.48017682 153.44362981 -96.78727773 153.43648965 -89.09430516 153.42216468 C-80.22602561 153.4058409 -71.35795304 153.41113042 -62.4896785 153.4276439 C-54.84768075 153.44129925 -47.20574496 153.4431587 -39.56373894 153.43532789 C-35.01170857 153.43067356 -30.45977518 153.42996436 -25.9077512 153.43993735 C-21.62629047 153.44866396 -17.34509415 153.44248225 -13.06366169 153.42525458 C-11.50129075 153.42131993 -9.93889719 153.42237133 -8.37653553 153.42904258 C8.63416043 153.49492847 23.47761392 150.21612499 36.40862453 138.5466764 C37.95643398 137.11621951 37.95643398 137.11621951 37.73674953 135.0310514 C38.39674953 135.0310514 39.05674953 135.0310514 39.73674953 135.0310514 C39.73674953 134.3710514 39.73674953 133.7110514 39.73674953 133.0310514 C40.39674953 133.0310514 41.05674953 133.0310514 41.73674953 133.0310514 C41.73674953 132.3710514 41.73674953 131.7110514 41.73674953 131.0310514 C42.39674953 130.7010514 43.05674953 130.3710514 43.73674953 130.0310514 C45.00390241 128.11025405 46.20317286 126.14422618 47.36174953 124.1560514 C47.99339015 123.08612952 48.62503078 122.01620765 49.27581203 120.9138639 C50.9627704 118.12369704 50.9627704 118.12369704 50.73674953 115.0310514 C43.3644737 115.00773764 35.992206 114.9900403 28.61990058 114.97923923 C25.19553933 114.97405162 21.77120355 114.9670302 18.34685695 114.95561194 C14.39739731 114.94252724 10.44794749 114.93778914 6.49846828 114.93339515 C5.28656322 114.92823386 4.07465816 114.92307258 2.8260287 114.91775489 C1.66565593 114.91767936 0.50528316 114.91760383 -0.69025242 114.91752601 C-2.19915799 114.91419509 -2.19915799 114.91419509 -3.73854649 114.91079688 C-6.65273841 115.01022218 -9.48189876 115.23734265 -12.37984288 115.53005958 C-18.58479281 116.11930659 -24.74164199 116.17162704 -30.97077 116.16044593 C-32.79956448 116.16307441 -32.79956448 116.16307441 -34.6653043 116.16575599 C-37.97248819 116.16937468 -41.2796086 116.16856782 -44.58678877 116.1653769 C-48.05762796 116.16282678 -51.52846463 116.16519765 -54.99930394 116.16676307 C-60.81417904 116.16857463 -66.62904137 116.16620259 -72.44391453 116.16142249 C-79.1713994 116.15595616 -85.89885408 116.15776368 -92.62633824 116.1632489 C-98.41336689 116.16777846 -104.20038642 116.16843212 -109.98741627 116.16581023 C-113.43969854 116.16424987 -116.89196657 116.16404762 -120.34424794 116.16734672 C-124.17940282 116.1707571 -128.01452339 116.16603847 -131.84967625 116.16044593 C-132.9976418 116.16247016 -134.14560734 116.16449439 -135.32835972 116.16657996 C-136.36560688 116.16376014 -137.40285405 116.16094031 -138.47153294 116.15803504 C-139.37811713 116.15765801 -140.28470131 116.15728099 -141.21875775 116.15689254 C-143.26325047 116.0310514 -143.26325047 116.0310514 -144.26325047 115.0310514 C-146.61528645 114.87088754 -148.97028326 114.75351901 -151.32575047 114.6560514 C-158.97313493 114.21903225 -164.93594123 113.48461507 -170.70075047 108.0310514 C-173.92647199 104.25459693 -174.38472997 101.88917825 -174.4527036 97.09501624 C-174.46942112 96.08901374 -174.48613865 95.08301124 -174.50336277 94.04652381 C-174.51693821 92.95602729 -174.53051365 91.86553077 -174.54450047 90.7419889 C-174.56290989 89.61016181 -174.58131932 88.47833472 -174.6002866 87.31220984 C-174.65908763 83.67687721 -174.71175558 80.04149437 -174.76325047 76.4060514 C-175.08097052 54.20168352 -175.08097052 54.20168352 -176.26325047 32.0310514 C-183.5635892 31.25867443 -190.8009744 30.92305387 -198.13825047 30.9060514 C-198.94625096 30.90153968 -199.75425145 30.89702796 -200.5867368 30.89237952 C-204.92431166 30.90316616 -208.99230869 31.1658767 -213.26325047 32.0310514 Z " fill="#FEFEFE" transform="translate(287.26325047016144,219.9689486026764)"/>
<path d="M0 0 C4.07143402 0.00256779 8.14286602 0.00017395 12.21430016 -0.00138617 C19.045888 -0.00319515 25.87746495 -0.00083516 32.70905113 0.00395441 C40.55821591 0.00939456 48.40735469 0.007631 56.25651884 0.00212801 C63.04861657 -0.0024396 69.84070657 -0.00303597 76.63280535 -0.00043333 C80.66623579 0.00110953 84.6996541 0.00137888 88.73308372 -0.00196981 C125.205726 -0.02788491 153.82562213 0.21408932 181.27789879 26.6343255 C195.70012267 41.64281865 204.04807025 59.73990851 203.98102379 80.59135675 C203.53890324 85.79919231 202.76496882 89.84438074 199.36774254 93.8843255 C193.87847608 98.47999045 190.04973699 99.57091955 182.91673851 99.49508905 C181.59338469 99.49893397 181.59338469 99.49893397 180.24329644 99.50285655 C177.2874408 99.50779749 174.33209605 99.49129628 171.37628746 99.47490168 C169.25735041 99.47405547 167.13841248 99.47453042 165.01947594 99.47622919 C159.26574638 99.47709082 153.512204 99.45943769 147.75851798 99.43850732 C141.74605171 99.41976863 135.73358128 99.41799229 129.72109032 99.4144311 C118.33498191 99.40510239 106.94895979 99.38047737 95.5628894 99.35038263 C82.60051709 99.31686437 69.63814068 99.30035907 56.67573583 99.28529632 C30.01052354 99.25392859 3.34538787 99.20115197 -23.31975746 99.1343255 C-23.3081559 100.23131769 -23.29655434 101.32830988 -23.28460121 102.45854425 C-23.27521782 103.91296963 -23.26611821 105.36739685 -23.25725746 106.8218255 C-23.24887856 107.54305597 -23.24049965 108.26428644 -23.23186684 109.00737238 C-23.21418745 112.87915846 -23.54518477 116.35786002 -24.31975746 120.1343255 C-24.4005664 122.62932321 -24.42735907 125.12632057 -24.41741371 127.62260675 C-24.41599876 128.32580545 -24.41458382 129.02900415 -24.41312599 129.75351191 C-24.40755855 131.98466094 -24.39501221 134.21570714 -24.38225746 136.4468255 C-24.37723825 137.96570426 -24.37267608 139.48458459 -24.36858559 141.00346613 C-24.35759982 144.71378562 -24.3403578 148.42404551 -24.31975746 152.1343255 C-23.19146711 152.13063833 -22.06317677 152.12695116 -20.9006958 152.12315226 C6.54039918 152.03439352 33.98147556 151.96864124 61.42268372 151.92707682 C74.69299607 151.90644283 87.96321366 151.87830609 101.23346519 151.83256769 C112.79846458 151.79272573 124.36339533 151.76689878 135.92846143 151.75797153 C142.05331375 151.75275235 148.17796972 151.74046769 154.30275917 151.71140528 C160.06633897 151.68427811 165.82964131 151.67587516 171.59327888 151.68189478 C173.70967427 151.68079335 175.82607883 151.6728236 177.94241905 151.6575036 C180.83084264 151.63761825 183.71821707 151.64238131 186.60666466 151.65330744 C187.44519623 151.64165607 188.28372781 151.63000471 189.14766943 151.61800027 C194.45102303 151.67226893 197.48560509 152.59640045 201.68024254 156.1343255 C204.93364501 161.01442921 204.25637327 166.42922603 203.68024254 172.1343255 C201.93024254 175.6968255 201.93024254 175.6968255 199.68024254 178.1343255 C198.99961754 178.8974505 198.31899254 179.6605755 197.61774254 180.4468255 C194.24157932 183.38735476 191.16337252 183.2624657 186.86736584 183.27413321 C185.03702383 183.28267007 185.03702383 183.28267007 183.16970521 183.29137939 C181.80845639 183.29267207 180.44720747 183.29386008 179.08595848 183.29495478 C177.64538933 183.29968486 176.2048215 183.30483565 174.76425523 183.31037241 C170.79593038 183.3242928 166.82761471 183.33186613 162.85927165 183.33834541 C159.45792989 183.34471268 156.05660325 183.35478328 152.65527091 183.36490607 C141.44856225 183.39824258 130.2418444 183.41975311 119.0351024 183.43810591 C116.1175855 183.44290025 113.20006898 183.44788365 110.28255248 183.45291114 C92.17015769 183.48388013 74.05775973 183.51056903 55.94534588 183.52732992 C51.74931202 183.5312795 47.55327823 183.53528249 43.35724449 183.5393548 C41.79286422 183.54086734 41.79286422 183.54086734 40.1968803 183.54241044 C23.29890278 183.55942054 6.40107163 183.60053324 -10.49683442 183.65137779 C-27.84039792 183.70313462 -45.18388611 183.73226957 -62.5275262 183.73952681 C-72.26746945 183.74419134 -82.00717296 183.7589666 -91.74703979 183.79927111 C-100.04133625 183.83355182 -108.33534972 183.84751837 -116.62971296 183.83484697 C-120.86173628 183.82901556 -125.09316096 183.83291729 -129.32509422 183.86301661 C-133.20112948 183.89035967 -137.07614028 183.88989623 -140.95219813 183.86750615 C-142.35266042 183.86428103 -143.75319108 183.87116479 -145.15353962 183.88930338 C-152.76101233 183.98185083 -158.09937325 183.75452081 -163.9723466 178.61653525 C-166.95496885 175.33552283 -166.71869419 171.6652364 -166.88225746 167.4468255 C-166.94477699 166.75137629 -167.00729652 166.05592707 -167.07171059 165.33940363 C-167.20576047 160.98887561 -166.28608521 158.39655663 -163.31585121 155.173388 C-157.07601884 150.32018505 -149.35180965 151.14251512 -141.81975746 151.1968255 C-136.70475746 151.1762005 -131.58975746 151.1555755 -126.31975746 151.1343255 C-126.31975746 130.0143255 -126.31975746 108.8943255 -126.31975746 87.1343255 C-125.98975746 87.1343255 -125.65975746 87.1343255 -125.31975746 87.1343255 C-125.16120277 86.06955988 -125.00264809 85.00479425 -124.83928871 83.907763 C-121.92218482 65.34672143 -115.69818819 48.55856382 -103.31975746 34.1343255 C-102.30268715 32.91809504 -102.30268715 32.91809504 -101.26506996 31.67729425 C-92.09253104 21.05216465 -81.6404836 13.59501543 -69.31975746 7.1343255 C-68.4934684 6.69991144 -67.66717934 6.26549738 -66.81585121 5.81791925 C-47.32522545 -3.63102454 -21.14978821 -0.01755929 0 0 Z M-71.31975746 44.1343255 C-72.37163246 44.8974505 -73.42350746 45.6605755 -74.50725746 46.4468255 C-85.87119696 57.30570102 -94.80080472 75.43869103 -95.4467411 91.24084711 C-95.4475367 92.34369547 -95.44833229 93.44654383 -95.44915199 94.58281183 C-95.45230415 95.84043833 -95.45545631 97.09806482 -95.45870399 98.39380121 C-95.45691491 99.75132009 -95.45486413 101.10883864 -95.45256996 102.46635675 C-95.4532441 103.86786144 -95.45421504 105.26936602 -95.45546913 106.6708703 C-95.45693852 109.59676978 -95.45481439 112.52263859 -95.45012856 115.44853449 C-95.44440524 119.20588991 -95.4477314 122.9631743 -95.45370102 126.72052717 C-95.45730468 129.60889461 -95.45616941 132.49724503 -95.45357323 135.38561296 C-95.45290478 136.77195669 -95.45372953 138.15830194 -95.45605278 139.54464388 C-95.45857889 141.47403291 -95.45404925 143.40342736 -95.44915199 145.33281183 C-95.4483564 146.43168222 -95.44756081 147.53055262 -95.4467411 148.66272211 C-95.59932916 151.07805187 -95.59932916 151.07805187 -94.31975746 152.1343255 C-91.67687389 152.23530801 -89.06068787 152.27403292 -86.41741371 152.267138 C-85.22806473 152.26857309 -85.22806473 152.26857309 -84.01468849 152.27003717 C-82.33423216 152.27071901 -80.65377321 152.26886446 -78.97332191 152.2646966 C-76.39668301 152.25935541 -73.82021898 152.26463778 -71.24358559 152.27104425 C-69.61402791 152.27038333 -67.98447034 152.26910189 -66.35491371 152.267138 C-65.58091728 152.26916224 -64.80692085 152.27118647 -64.00946999 152.27327204 C-60.03519123 152.34148965 -60.03519123 152.34148965 -56.31975746 151.1343255 C-55.09293257 145.39891915 -55.24541615 139.72457909 -55.31975746 133.8843255 C-55.37538269 123.90992676 -55.25408232 113.94560126 -55.00237465 103.97477961 C-54.96424558 102.42594779 -54.92936549 100.87703226 -54.89788246 99.32805109 C-54.85226761 97.12772858 -54.79458037 94.92802586 -54.73381996 92.7280755 C-54.70239906 91.45641535 -54.67097816 90.18475519 -54.63860512 88.87455988 C-54.22786125 84.05633936 -53.76361777 78.96785414 -50.69866371 75.07573175 C-50.09924965 74.62069269 -49.49983559 74.16565363 -48.88225746 73.6968255 C-48.28542152 73.22373957 -47.68858559 72.75065363 -47.07366371 72.26323175 C-42.97191509 69.62313075 -38.73892118 69.98730781 -34.05146217 69.98956537 C-32.77165699 69.9842751 -32.77165699 69.9842751 -31.46599716 69.97887796 C-28.596363 69.9681715 -25.72676202 69.96450663 -22.85711098 69.96074152 C-20.80406999 69.95443783 -18.75103038 69.94767224 -16.69799232 69.94047785 C-12.2716246 69.92579638 -7.8452622 69.91407641 -3.41888046 69.90453005 C3.57651192 69.88909998 10.57185877 69.86515178 17.56722069 69.83963251 C37.46106658 69.76836762 57.35493844 69.70860071 77.24884605 69.65751886 C88.23193235 69.62924208 99.21497323 69.5938766 110.19801193 69.55086511 C117.15566486 69.52404909 124.11326638 69.50617084 131.07096088 69.49482787 C135.39560373 69.48571863 139.72018399 69.46836495 144.04479027 69.44864893 C146.05396163 69.44115935 148.06314902 69.43709153 150.07233429 69.43665361 C152.81000231 69.43557488 155.54735011 69.42236126 158.28496361 69.40606928 C159.48422931 69.40999456 159.48422931 69.40999456 160.7077226 69.41399914 C164.50534374 69.37857131 167.46138449 69.27910934 170.68024254 67.1343255 C166.53945144 53.42549285 157.32309672 43.66423676 145.03449059 36.79741144 C132.04181915 29.9147508 118.31212228 29.98313666 103.93756676 29.98906183 C102.47438535 29.98606366 101.01120474 29.98265963 99.54802513 29.97888422 C95.59931754 29.97010523 91.65063167 29.96770864 87.70191526 29.96706843 C85.22627574 29.96635426 82.75064161 29.96421298 80.27500343 29.96157122 C71.61353014 29.95233673 62.95207216 29.94823379 54.2905941 29.94902277 C46.25749314 29.94962248 38.22445955 29.93908674 30.19137561 29.92327911 C23.26189102 29.91013635 16.33242827 29.90484171 9.40293133 29.90547818 C5.27888178 29.90573127 1.15489215 29.90298602 -2.96914482 29.89230013 C-6.85491712 29.88250538 -10.74057364 29.88261645 -14.6263504 29.88981676 C-16.03869041 29.89084877 -17.45103808 29.88858401 -18.86336517 29.8824563 C-38.33754871 29.80355229 -55.53720567 31.77900667 -71.31975746 44.1343255 Z " fill="#FEFEFE" transform="translate(167.31975746154785,-0.13432550430297852)"/>
<path d="M0 0 C1.15909649 2.31819298 2.25171887 4.60412529 3.25 7 C5.40103123 10.68748212 7.26742788 11.94711242 11 14 C14.6626976 14.63478605 14.6626976 14.63478605 18.5859375 14.609375 C19.28772125 14.62591125 19.989505 14.64244751 20.71255493 14.65948486 C22.93346122 14.7077069 25.15368428 14.72927607 27.375 14.75 C28.88935682 14.77818161 30.40368216 14.8081121 31.91796875 14.83984375 C35.61183186 14.91345568 39.30556581 14.96318894 43 15 C43.01213028 16.14940063 43.01213028 16.14940063 43.02450562 17.32202148 C43.10311445 24.61638111 43.19059174 31.9105594 43.28752708 39.20469666 C43.33703864 42.95283462 43.38336398 46.70095034 43.421875 50.44921875 C43.459309 54.08038245 43.50580733 57.71133615 43.55806351 61.34231567 C43.58505661 63.37128694 43.60314908 65.40037055 43.62094116 67.42944336 C44.07217933 96.50079997 52.59489358 121.65727183 73.8125 142.2265625 C90.4080186 157.13494078 110.82283922 166.08566649 133.2769928 166.14044189 C133.96336506 166.14341302 134.64973732 166.14638414 135.35690874 166.1494453 C137.63256454 166.15804335 139.9081672 166.15963293 142.18383789 166.16113281 C143.82568471 166.16576737 145.46753047 166.17079288 147.109375 166.17617798 C151.55398117 166.18924423 155.99857227 166.19573584 160.44319463 166.20018864 C163.2266982 166.20312927 166.01019774 166.20723595 168.79369926 166.21169281 C177.52195403 166.22535376 186.25019948 166.23502675 194.97846419 166.2388947 C205.01775325 166.24336937 215.05690575 166.26089573 225.09615332 166.2898953 C232.87992693 166.31159078 240.66366234 166.32160319 248.44746584 166.32293582 C253.08518423 166.32397841 257.72277401 166.32976866 262.36046028 166.34775543 C266.72967043 166.36437238 271.09865717 166.3663264 275.46788788 166.35761642 C277.05964448 166.35685322 278.65141378 166.36109245 280.24313927 166.37107468 C305.94156171 166.52261416 327.73265883 158.67505481 346.5625 140.8125 C356.35582475 130.67912925 361.64453712 118.81892712 367 106 C367.33 106 367.66 106 368 106 C367.49755478 112.00541662 365.60113251 116.56883136 362.9375 121.9375 C362.56044922 122.71673828 362.18339844 123.49597656 361.79492188 124.29882812 C360.87184945 126.20339529 359.93710938 128.10230013 359 130 C358.34 130 357.68 130 357 130 C356.89558594 130.57363281 356.79117187 131.14726562 356.68359375 131.73828125 C352.66573108 145.03166689 335.96207709 154.71551483 324.56640625 160.84765625 C309.84656857 168.35110371 295.06987456 170.61102279 278.70263672 170.50170898 C277.04960676 170.50550517 275.39658001 170.51101579 273.74356079 170.51808167 C269.3096784 170.53188224 264.87619075 170.52097749 260.44233084 170.50437045 C255.77023717 170.49037316 251.09816306 170.49699637 246.42605591 170.50050354 C238.5871963 170.50319366 230.74849087 170.48983207 222.90966797 170.46655273 C213.88399101 170.43993203 204.85857125 170.43820636 195.83286846 170.4499411 C187.09926093 170.4607683 178.36574521 170.4544944 169.63214493 170.44038582 C165.93795694 170.43467058 162.24383714 170.4346731 158.54964828 170.43945122 C154.1909467 170.4442693 149.83252216 170.43392233 145.47387314 170.41249657 C143.88696222 170.40699432 142.30002431 170.40640187 140.71311188 170.41144943 C115.36038388 170.48190022 93.09202096 163.17515138 74 146 C73.44521973 145.50113281 72.89043945 145.00226563 72.31884766 144.48828125 C56.28246912 129.8558055 44.68054562 111.89282849 42.32421875 89.92578125 C42.10176481 87.16432831 42.10176481 87.16432831 41.48683167 85.21844482 C40.84687254 82.30221295 40.88068774 79.56512525 40.88647461 76.57910156 C40.88655014 75.27805481 40.88662567 73.97700806 40.88670349 72.63653564 C40.89180976 71.22123171 40.89702575 69.80592816 40.90234375 68.390625 C40.90420965 66.93902637 40.90563274 65.48742712 40.90663147 64.03582764 C40.91044312 60.22180431 40.92026185 56.40781927 40.93133545 52.59381104 C40.94157865 48.69926471 40.94613532 44.80471217 40.95117188 40.91015625 C40.96188535 33.27342007 40.97894551 25.63671541 41 18 C40.18845459 18.01571045 39.37690918 18.0314209 38.54077148 18.04760742 C34.83975276 18.11022907 31.13884583 18.14907772 27.4375 18.1875 C26.16068359 18.21263672 24.88386719 18.23777344 23.56835938 18.26367188 C9.82534124 18.37076033 9.82534124 18.37076033 4.2578125 13.46484375 C0.55480845 8.47217277 -0.115682 6.24682822 0 0 Z " fill="#C4C6C9" transform="translate(0,234)"/>
<path d="M0 0 C5.36443913 0.3742632 7.49646001 1.9959543 11 6 C11.33 6.33 11.66 6.66 12 7 C12.51213743 12.86859116 12.8784999 18.2116252 10.25 23.5625 C9.13625 24.7690625 9.13625 24.7690625 8 26 C7.319375 26.763125 6.63875 27.52625 5.9375 28.3125 C2.56133678 31.25302925 -0.51687001 31.12814019 -4.8128767 31.1398077 C-6.64321871 31.14834456 -6.64321871 31.14834456 -8.51053733 31.15705389 C-9.87178614 31.15834656 -11.23303507 31.15953458 -12.59428406 31.16062927 C-14.03485321 31.16535935 -15.47542103 31.17051014 -16.91598731 31.17604691 C-20.88431216 31.1899673 -24.85262783 31.19754062 -28.82097089 31.2040199 C-32.22231265 31.21038718 -35.62363929 31.22045778 -39.02497163 31.23058056 C-50.23168029 31.26391708 -61.43839814 31.28542761 -72.64514014 31.30378041 C-75.56265704 31.30857475 -78.48017356 31.31355815 -81.39769006 31.31858563 C-99.51008485 31.34955462 -117.62248281 31.37624352 -135.73489666 31.39300442 C-139.93093051 31.396954 -144.12696431 31.40095698 -148.32299805 31.4050293 C-149.88737832 31.40654184 -149.88737832 31.40654184 -151.48336224 31.40808494 C-168.38133976 31.42509504 -185.27917091 31.46620773 -202.17707696 31.51705229 C-219.52064046 31.56880911 -236.86412865 31.59794407 -254.20776874 31.6052013 C-263.94771198 31.60986584 -273.68741549 31.6246411 -283.42728233 31.6649456 C-291.72157879 31.69922632 -300.01559226 31.71319286 -308.3099555 31.70052146 C-312.54197882 31.69469006 -316.7734035 31.69859179 -321.00533676 31.7286911 C-324.88137202 31.75603416 -328.75638282 31.75557073 -332.63244066 31.73318065 C-334.03290296 31.72995552 -335.43343361 31.73683929 -336.83378216 31.75497787 C-344.44125486 31.84752532 -349.77961579 31.6201953 -355.65258914 26.48220974 C-358.4019906 23.4577502 -358.0860025 20.95611505 -358 17 C-357.608125 17.556875 -357.21625 18.11375 -356.8125 18.6875 C-354.2977333 21.89599544 -351.68677886 25.15661057 -348 27 C-346.11394272 27.09735864 -344.22438636 27.12919243 -342.33581924 27.13142776 C-340.5170639 27.13718948 -340.5170639 27.13718948 -338.66156602 27.1430676 C-337.30385727 27.14228726 -335.94614857 27.14140846 -334.58843994 27.14044189 C-333.15555864 27.14302409 -331.72267807 27.14603684 -330.2897985 27.1494453 C-326.33814959 27.15753583 -322.38651882 27.15930601 -318.43486261 27.16004276 C-314.17843288 27.16188978 -309.92201265 27.16943536 -305.66558838 27.17617798 C-296.3515527 27.18977674 -287.03752132 27.19578851 -277.72347736 27.20018864 C-271.91049673 27.20294865 -266.09751777 27.20718557 -260.28453827 27.21169281 C-244.19833099 27.22388785 -228.11212504 27.23418647 -212.02591324 27.2375679 C-210.99576414 27.23778747 -209.96561504 27.23800703 -208.9042493 27.23823325 C-207.35526988 27.23856067 -207.35526988 27.23856067 -205.77499795 27.2388947 C-203.6823554 27.23933817 -201.58971286 27.23978473 -199.49707031 27.24023438 C-197.9400267 27.24056652 -197.9400267 27.24056652 -196.35152766 27.24090537 C-179.52978635 27.2448538 -162.70808835 27.26230815 -145.88636377 27.2855939 C-128.62646035 27.30929383 -111.36657866 27.32176915 -94.1066587 27.32293582 C-84.41155881 27.32385338 -74.71651534 27.32962608 -65.02143097 27.34775543 C-56.76589808 27.36313815 -48.51043902 27.36828774 -40.25489452 27.36001733 C-36.04152726 27.35610423 -31.82830878 27.35707247 -27.61495972 27.37107468 C-23.75835698 27.38377425 -19.9020154 27.382651 -16.04541323 27.37048396 C-14.64967988 27.36852009 -13.25392828 27.37163719 -11.85822061 27.38032833 C-9.96135905 27.39139299 -8.0644116 27.38215816 -6.16754532 27.3719368 C-4.58687692 27.37283243 -4.58687692 27.37283243 -2.97427583 27.37374616 C0.56292028 26.92926369 2.95363828 25.82806763 6 24 C7.84434349 21.53884453 7.84434349 21.53884453 9 19 C9.33 18.34 9.66 17.68 10 17 C10.50055577 11.30939303 10.50055577 11.30939303 8.375 6.1875 C5.76257341 3.78131761 3.24973719 2.4032956 0 1 C0 0.67 0 0.34 0 0 Z " fill="#C5C9CD" transform="translate(359,152)"/>
<path d="M0 0 C13.53 0 27.06 0 41 0 C41.02578125 4.888125 41.0515625 9.77625 41.078125 14.8125 C41.10330992 17.92062439 41.12965526 21.02865306 41.16015625 24.13671875 C41.20839364 29.06331671 41.25247471 33.98969291 41.27099609 38.91650391 C41.28620901 42.89142474 41.32073543 46.865763 41.36830902 50.84042358 C41.38307534 52.35211099 41.39103828 53.86388159 41.39188385 55.37564087 C41.28611001 67.92648192 41.28611001 67.92648192 47.42803955 78.53930664 C51.72516188 81.95410799 56.21905488 82.38914461 61.54417419 82.61607361 C62.28715112 82.6532896 63.03012805 82.6905056 63.79561943 82.72884935 C72.89494583 83.14619796 81.99857436 83.17646682 91.10571289 83.20532227 C93.0589365 83.21492848 95.01215816 83.22494003 96.96537781 83.23532104 C102.21212496 83.26207957 107.45888085 83.28324416 112.70565724 83.30332303 C118.2095845 83.32536439 123.71348577 83.35266328 129.21739197 83.37937927 C139.61493951 83.42906308 150.01250168 83.4740909 160.41007751 83.51740164 C172.25790562 83.56698336 184.10570762 83.62182307 195.9535104 83.67708123 C220.30231586 83.79052748 244.6511464 83.89744616 269 84 C267.24648364 95.88952052 259.17997836 106.14430272 249.8828125 113.44921875 C244.29923466 117.53521984 238.76461268 121.24621153 232 123 C231.01 122.67 230.02 122.34 229 122 C230.07378906 121.49210937 231.14757812 120.98421875 232.25390625 120.4609375 C244.34539019 115.29176103 244.34539019 115.29176103 253 106 C253.66 106 254.32 106 255 106 C255 105.34 255 104.68 255 104 C255.66 104 256.32 104 257 104 C257.26683594 103.28070313 257.53367187 102.56140625 257.80859375 101.8203125 C259.01048302 98.97518445 260.43210623 96.4948465 262.0625 93.875 C263.72679402 91.19748052 264.99990801 89.00027598 266 86 C258.6276373 86.10821729 251.2553584 86.22098471 243.88315105 86.33933926 C240.45883194 86.39417555 237.03450394 86.447526 233.61010742 86.49731445 C229.66056734 86.55480664 225.71115029 86.61906071 221.76171875 86.68359375 C220.54981369 86.70030624 219.33790863 86.71701874 218.08927917 86.73423767 C216.9289064 86.75418289 215.76853363 86.77412811 214.57299805 86.79467773 C213.06409248 86.81799416 213.06409248 86.81799416 211.52470398 86.84178162 C208.61863232 86.97223057 205.77535634 87.21248736 202.88340759 87.50474548 C196.6788575 88.08855189 190.52074464 88.14057409 184.29248047 88.12939453 C182.46368599 88.13202301 182.46368599 88.13202301 180.59794617 88.13470459 C177.29076228 88.13832328 173.98364187 88.13751643 170.6764617 88.1343255 C167.20562251 88.13177539 163.73478584 88.13414625 160.26394653 88.13571167 C154.44907143 88.13752324 148.6342091 88.13515119 142.81933594 88.13037109 C136.09185107 88.12490476 129.36439639 88.12671228 122.63691223 88.1321975 C116.84988358 88.13672706 111.06286405 88.13738072 105.2758342 88.13475883 C101.82355193 88.13319848 98.3712839 88.13299623 94.91900253 88.13629532 C91.08384765 88.1397057 87.24872708 88.13498708 83.41357422 88.12939453 C82.26560867 88.13141876 81.11764313 88.13344299 79.93489075 88.13552856 C78.89764359 88.13270874 77.86039642 88.12988892 76.79171753 88.12698364 C75.88513334 88.12660662 74.97854916 88.12622959 74.04449272 88.12584114 C72 88 72 88 71 87 C68.64796402 86.83983614 66.29296721 86.72246761 63.9375 86.625 C54.6831993 86.0869086 48.91072942 84.53597407 42.34765625 77.71875 C39.94905334 74.65966223 39.86050185 71.80568317 39.79467773 68.06396484 C39.7647599 66.55496109 39.7647599 66.55496109 39.73423767 65.01547241 C39.71752518 63.92497589 39.70081268 62.83447937 39.68359375 61.7109375 C39.66281265 60.57911041 39.64203156 59.44728333 39.62062073 58.28115845 C39.57731711 55.8753031 39.53628012 53.46940607 39.49731445 51.06347656 C39.43852246 47.43805029 39.37325285 43.81279012 39.30664062 40.1875 C39.26523709 37.84115265 39.22421047 35.49479861 39.18359375 33.1484375 C39.16485703 32.08628021 39.1461203 31.02412292 39.1268158 29.92977905 C38.98321264 20.94973786 39 11.98506746 39 3 C26.79 3 14.58 3 2 3 C2 8.94 2 14.88 2 21 C1.67 21.66 1.34 22.32 1 23 C0.84266751 25.98763355 0.74138585 28.95541151 0.68359375 31.9453125 C0.66281265 32.8303244 0.64203156 33.7153363 0.62062073 34.62716675 C0.55513402 37.45969741 0.49624438 40.29232225 0.4375 43.125 C0.39431394 45.04297857 0.35069963 46.96094754 0.30664062 48.87890625 C0.19945353 53.58584051 0.0981836 58.29286967 0 63 C-0.33 63 -0.66 63 -1 63 C-1.02314476 55.08113286 -1.040926 47.1622798 -1.05181217 39.24338722 C-1.05703632 35.56654289 -1.0641255 31.88972166 -1.07543945 28.21289062 C-1.08628493 24.6662104 -1.09228037 21.11955243 -1.09487724 17.5728569 C-1.09672849 16.21803817 -1.10034338 14.86322069 -1.10573006 13.50841141 C-1.11296238 11.61450635 -1.11340824 9.72057902 -1.11352539 7.82666016 C-1.115746 6.74744293 -1.11796661 5.66822571 -1.12025452 4.55630493 C-1 2 -1 2 0 0 Z " fill="#CED1D3" transform="translate(72,249)"/>
<path d="M0 0 C4.29857555 0.16857159 6.52119245 0.6230664 9.9375 3.3125 C13.3258726 7.93097486 12.65772837 13.57374091 12 19 C10.27158926 24.83338625 6.16463704 28.06647804 1 31 C-2.08324896 31.78670283 -4.9924879 31.78932163 -8.16223145 31.7215271 C-9.05111415 31.72665365 -9.93999686 31.7317802 -10.85581541 31.7370621 C-13.81673858 31.74689885 -16.77559484 31.7140242 -19.73632812 31.68115234 C-21.86555941 31.67945892 -23.99479419 31.68041181 -26.12402344 31.68380737 C-31.89226911 31.68552673 -37.65976404 31.65028537 -43.42783546 31.60836363 C-49.4602743 31.57082028 -55.49273092 31.5673284 -61.52526855 31.56021118 C-72.94327572 31.54157303 -84.36093763 31.49234956 -95.77879286 31.43211424 C-108.77989139 31.36501737 -121.78100653 31.33205204 -134.78223515 31.30194163 C-161.52168141 31.23924993 -188.26082135 31.13373455 -215 31 C-215 36.28 -215 41.56 -215 47 C-215.33 47 -215.66 47 -216 47 C-216 58.22 -216 69.44 -216 81 C-212.73945918 82.63027041 -209.14459467 82.13881777 -205.56170654 82.13130188 C-204.67810023 82.13341759 -203.79449391 82.13553331 -202.88411164 82.13771313 C-199.90547624 82.14373332 -196.92688296 82.14271155 -193.94824219 82.1418457 C-191.81977771 82.14487588 -189.69131387 82.14839693 -187.56285095 82.15237427 C-182.97003863 82.1602748 -178.37723412 82.16541253 -173.7844162 82.16866493 C-166.52391673 82.17456439 -159.26346656 82.19109473 -152.00299072 82.21000671 C-149.51945117 82.21634444 -147.03591159 82.22267006 -144.55237198 82.22898388 C-142.68646558 82.2337326 -142.68646558 82.2337326 -140.78286409 82.23857725 C-123.87364343 82.28068861 -106.96444538 82.31363168 -90.05517578 82.32592773 C-78.65783691 82.33430092 -67.26061962 82.35676523 -55.86334157 82.3952834 C-49.82910029 82.41507107 -43.79504089 82.42743966 -37.76076508 82.42244911 C-32.08409613 82.41781168 -26.40777198 82.43155883 -20.73117256 82.45946121 C-18.64705347 82.46638852 -16.56289884 82.46648308 -14.47878075 82.45926094 C-11.63418437 82.45039878 -8.79073145 82.46602394 -5.94622803 82.48774719 C-5.12073354 82.47930466 -4.29523904 82.47086212 -3.44472957 82.46216375 C1.8251958 82.53661882 4.80885767 83.52602478 9 87 C11.62950989 90.41836286 12.36806769 92.70587699 12 97 C10.6917422 95.03761331 9.43837744 93.03721846 8.25 91 C5.63398848 87.51198464 4.04000703 86.5798748 0 85 C-2.98932529 84.58521864 -5.93853431 84.58782583 -8.95295715 84.60800171 C-10.28878492 84.59908982 -10.28878492 84.59908982 -11.65159911 84.58999789 C-14.62959552 84.57371357 -17.60717374 84.57865332 -20.58520508 84.58349609 C-22.72237627 84.57611576 -24.85954324 84.56741067 -26.9967041 84.55747986 C-32.79583975 84.53415445 -38.59486836 84.52900741 -44.39404511 84.52682066 C-50.45679969 84.52116314 -56.51948434 84.49789371 -62.5821991 84.47622681 C-74.06265515 84.43769857 -85.54309121 84.41348111 -97.02359551 84.39510214 C-117.60570149 84.36168633 -138.18774781 84.30408438 -158.76978225 84.24111044 C-165.99838792 84.21956277 -173.22697271 84.20432546 -180.45560324 84.19427085 C-184.93959038 84.18727747 -189.42356249 84.17640128 -193.90753937 84.16462898 C-195.995383 84.16005238 -198.08323124 84.15721921 -200.17107964 84.15620613 C-203.00807146 84.15464595 -205.84498484 84.147098 -208.68196106 84.13803101 C-209.51929128 84.13909926 -210.3566215 84.14016751 -211.21932536 84.14126813 C-216.88596364 84.11403636 -216.88596364 84.11403636 -218 83 C-218.0987517 81.31744765 -218.12798904 79.63075972 -218.12939453 77.9453125 C-218.13254669 76.86749512 -218.13569885 75.78967773 -218.13894653 74.67919922 C-218.1369223 73.50631348 -218.13489807 72.33342773 -218.1328125 71.125 C-218.13376923 69.9302002 -218.13472595 68.73540039 -218.13571167 67.50439453 C-218.13639371 64.9723302 -218.13453778 62.44026412 -218.13037109 59.90820312 C-218.12502321 56.0168874 -218.13031533 52.12568711 -218.13671875 48.234375 C-218.13605797 45.78124974 -218.13477682 43.32812456 -218.1328125 40.875 C-218.13483673 39.70211426 -218.13686096 38.52922852 -218.13894653 37.32080078 C-218.13579437 36.2429834 -218.13264221 35.16516602 -218.12939453 34.0546875 C-218.12859894 33.10062012 -218.12780334 32.14655273 -218.12698364 31.16357422 C-218 29 -218 29 -217 28 C-214.18970484 27.89411616 -211.40360906 27.85395757 -208.59257507 27.85523987 C-207.70024494 27.85171302 -206.80791482 27.84818618 -205.88854438 27.84455246 C-202.874503 27.83380965 -199.86049315 27.83017484 -196.84643555 27.82641602 C-194.69516871 27.82011503 -192.54390319 27.81334974 -190.39263916 27.80615234 C-185.74797017 27.79145077 -181.10330632 27.77973892 -176.45862389 27.77020454 C-169.11894214 27.75479555 -161.77930407 27.73084681 -154.43965149 27.70530701 C-133.56436926 27.63398812 -112.68906186 27.57429459 -91.8137207 27.52319336 C-80.29375118 27.49491764 -68.77382497 27.45955046 -57.25390083 27.41653961 C-49.95337078 27.38971505 -42.65288977 27.37184179 -35.35232008 27.36050236 C-30.81353304 27.35139396 -26.27480566 27.33404031 -21.73605347 27.31432343 C-19.62690478 27.30683256 -17.51774082 27.30276594 -15.40857887 27.30232811 C-12.53505874 27.3012497 -9.66184401 27.28803887 -6.78837585 27.27174377 C-5.52869957 27.27566906 -5.52869957 27.27566906 -4.24357527 27.27967364 C1.22825099 27.32184723 1.22825099 27.32184723 6 25 C7.29231642 21.95800528 7.29231642 21.95800528 8 19 C8.66 19 9.32 19 10 19 C10.3743038 14.32120251 10.44402217 10.92219989 8.375 6.625 C5.79323395 3.7714691 3.54004768 2.44820132 0 1 C0 0.67 0 0.34 0 0 Z " fill="#D2D5D7" transform="translate(359,221)"/>
<path d="M0 0 C1.50480314 -0.00271838 3.00960495 -0.00628401 4.5144043 -0.01062012 C8.55787581 -0.01964662 12.60124393 -0.01624039 16.64471698 -0.00986195 C20.90442833 -0.00475003 25.16413163 -0.00950776 29.42384338 -0.01263428 C36.57440762 -0.01625933 43.72493036 -0.01151378 50.87548828 -0.00195312 C59.10523922 0.00892442 67.33489098 0.00540501 75.56463951 -0.00560594 C82.66913996 -0.01472564 89.77361081 -0.01594121 96.87811524 -0.0107286 C101.10434692 -0.00763396 105.33053221 -0.00712958 109.55676079 -0.01380157 C113.53369844 -0.01964291 117.51051013 -0.01545616 121.48743439 -0.00401306 C122.93405767 -0.00140214 124.38069183 -0.00206916 125.82731056 -0.00653839 C147.02454357 -0.06591223 164.47251654 3.03065969 180.54516602 17.88378906 C186.65493852 24.25487566 192.46977542 32.3438576 193.42016602 41.25878906 C191.11016602 41.25878906 188.80016602 41.25878906 186.42016602 41.25878906 C186.75016602 40.59878906 187.08016602 39.93878906 187.42016602 39.25878906 C188.41016602 39.25878906 189.40016602 39.25878906 190.42016602 39.25878906 C182.88570645 23.802245 173.02130297 12.10610795 156.32740116 6.10396957 C145.61495862 2.9896884 134.1692698 2.96479286 123.10986328 3 C121.64594348 2.99728048 120.18202504 2.99371423 118.71810913 2.98937988 C114.7903274 2.98036683 110.86265232 2.98375388 106.93486905 2.99013805 C102.79307885 2.99525716 98.65129684 2.9904903 94.50950623 2.98736572 C87.55742785 2.9837427 80.60539218 2.9884808 73.65332031 2.99804688 C65.65703072 3.0089239 57.66084321 3.00540456 49.66455609 2.99439406 C42.75619632 2.98526834 35.84786699 2.98406169 28.93950313 2.9892714 C24.83230257 2.9923628 20.7251497 2.99287965 16.61795235 2.98619843 C12.75262259 2.98034817 8.8874222 2.98455947 5.02210617 2.99598694 C3.61782863 2.99859324 2.21353987 2.99793918 0.80926704 2.99346161 C-18.69218883 2.9370956 -35.74072684 4.96931233 -51.57983398 17.25878906 C-52.91014648 18.15597656 -52.91014648 18.15597656 -54.26733398 19.07128906 C-64.69907207 28.93914941 -73.03503324 45.96938214 -74.57983398 60.25878906 C-74.90983398 60.25878906 -75.23983398 60.25878906 -75.57983398 60.25878906 C-76.75491308 45.27653058 -68.69405943 31.03998636 -59.25170898 19.96582031 C-42.75105404 3.24805149 -22.78273203 -0.07027715 0 0 Z " fill="#DADCDF" transform="translate(147.579833984375,27.7412109375)"/>
<path d="M0 0 C2.4931768 3.7397652 2.26776473 5.79105186 2.25 10.25 C2.25773437 12.17585938 2.25773437 12.17585938 2.265625 14.140625 C1.89710485 19.49500601 1.17831213 23.59876395 -2.3125 27.75 C-7.80176646 32.34566494 -11.63050555 33.43659404 -18.76350403 33.36076355 C-20.08685785 33.36460846 -20.08685785 33.36460846 -21.43694609 33.36853105 C-24.39280174 33.37347199 -27.34814649 33.35697077 -30.30395508 33.34057617 C-32.42289213 33.33972997 -34.54183006 33.34020491 -36.6607666 33.34190369 C-42.41449616 33.34276532 -48.16803854 33.32511219 -53.92172456 33.30418181 C-59.93419082 33.28544313 -65.94666126 33.28366679 -71.95915222 33.28010559 C-83.34526063 33.27077688 -94.73128275 33.24615186 -106.11735314 33.21605712 C-119.07972545 33.18253886 -132.04210186 33.16603357 -145.00450671 33.15097082 C-171.669719 33.11960308 -198.33485467 33.06682647 -225 33 C-224.98839844 34.09699219 -224.97679687 35.19398437 -224.96484375 36.32421875 C-224.95546036 37.77864412 -224.94636075 39.23307135 -224.9375 40.6875 C-224.92912109 41.40873047 -224.92074219 42.12996094 -224.91210938 42.87304688 C-224.89449992 46.72951663 -225.13151535 50.24647878 -226 54 C-226.14609545 56.49404567 -226.24675904 58.99093127 -226.31640625 61.48828125 C-226.33718735 62.19147995 -226.35796844 62.89467865 -226.37937927 63.6191864 C-226.44440115 65.85019817 -226.50353776 68.08132069 -226.5625 70.3125 C-226.60573036 71.83139134 -226.64934605 73.35027177 -226.69335938 74.86914062 C-226.80003334 78.5793112 -226.90143221 82.28960421 -227 86 C-227.33 86 -227.66 86 -228 86 C-228 67.85 -228 49.7 -228 31 C-218.24791992 30.98598145 -218.24791992 30.98598145 -208.29882812 30.97167969 C-186.84109043 30.93794355 -165.38344881 30.8826149 -143.92578888 30.81609726 C-130.91341444 30.77628864 -117.90110064 30.74390535 -104.88867188 30.72900391 C-93.54698721 30.71599691 -82.20543586 30.68905639 -70.86382627 30.64538693 C-64.85856474 30.62275093 -58.85346777 30.60709062 -52.84815979 30.60811615 C-47.19447818 30.60886148 -41.54116066 30.59096119 -35.88757324 30.55883217 C-33.81397665 30.55032146 -31.74033927 30.54859117 -29.66673279 30.55419731 C-26.83147446 30.56084093 -23.99737331 30.5429076 -21.16223145 30.51898193 C-20.34508934 30.52674235 -19.52794724 30.53450277 -18.68604326 30.54249835 C-13.04152301 30.45840017 -8.73164331 29.13608515 -4 26 C1.7347436 19.02092524 0.37807155 8.46460197 0 0 Z " fill="#CACCD1" transform="translate(369,66)"/>
<path d="M0 0 C1.15909649 2.31819298 2.25171887 4.60412529 3.25 7 C5.40103123 10.68748212 7.26742788 11.94711242 11 14 C14.6626976 14.63478605 14.6626976 14.63478605 18.5859375 14.609375 C19.28772125 14.62591125 19.989505 14.64244751 20.71255493 14.65948486 C22.93346122 14.7077069 25.15368428 14.72927607 27.375 14.75 C28.88935682 14.77818161 30.40368216 14.8081121 31.91796875 14.83984375 C35.61183186 14.91345568 39.30556581 14.96318894 43 15 C43.01213028 16.14940063 43.01213028 16.14940063 43.02450562 17.32202148 C43.10311445 24.61638111 43.19059174 31.9105594 43.28752708 39.20469666 C43.33703864 42.95283462 43.38336398 46.70095034 43.421875 50.44921875 C43.459309 54.08038245 43.50580733 57.71133615 43.55806351 61.34231567 C43.58505661 63.37128694 43.60314908 65.40037055 43.62094116 67.42944336 C44.07217933 96.50079997 52.59489358 121.65727183 73.8125 142.2265625 C85.27618729 152.52482378 98.3522736 159.43759342 113 164 C106.29085323 166.09374284 99.71689516 163.61166154 93.6875 160.5 C70.74885915 147.08427316 51.76240258 126.73849276 44 101 C43.27336977 97.30783318 42.72545317 93.66632152 42.32421875 89.92578125 C42.10176481 87.16432831 42.10176481 87.16432831 41.48683167 85.21844482 C40.84687254 82.30221295 40.88068774 79.56512525 40.88647461 76.57910156 C40.88655014 75.27805481 40.88662567 73.97700806 40.88670349 72.63653564 C40.89180976 71.22123171 40.89702575 69.80592816 40.90234375 68.390625 C40.90420965 66.93902637 40.90563274 65.48742712 40.90663147 64.03582764 C40.91044312 60.22180431 40.92026185 56.40781927 40.93133545 52.59381104 C40.94157865 48.69926471 40.94613532 44.80471217 40.95117188 40.91015625 C40.96188535 33.27342007 40.97894551 25.63671541 41 18 C40.18845459 18.01571045 39.37690918 18.0314209 38.54077148 18.04760742 C34.83975276 18.11022907 31.13884583 18.14907772 27.4375 18.1875 C26.16068359 18.21263672 24.88386719 18.23777344 23.56835938 18.26367188 C9.82534124 18.37076033 9.82534124 18.37076033 4.2578125 13.46484375 C0.55480845 8.47217277 -0.115682 6.24682822 0 0 Z " fill="#D3D6D8" transform="translate(0,234)"/>
<path d="M0 0 C69.96 0 139.92 0 212 0 C211.67 0.99 211.34 1.98 211 3 C210.67 2.34 210.34 1.68 210 1 C202.6276373 1.10821729 195.2553584 1.22098471 187.88315105 1.33933926 C184.45883194 1.39417555 181.03450394 1.447526 177.61010742 1.49731445 C173.66056734 1.55480664 169.71115029 1.61906071 165.76171875 1.68359375 C164.54981369 1.70030624 163.33790863 1.71701874 162.08927917 1.73423767 C160.9289064 1.75418289 159.76853363 1.77412811 158.57299805 1.79467773 C157.06409248 1.81799416 157.06409248 1.81799416 155.52470398 1.84178162 C152.61863232 1.97223057 149.77535634 2.21248736 146.88340759 2.50474548 C140.6788575 3.08855189 134.52074464 3.14057409 128.29248047 3.12939453 C126.46368599 3.13202301 126.46368599 3.13202301 124.59794617 3.13470459 C121.29076228 3.13832328 117.98364187 3.13751643 114.6764617 3.1343255 C111.20562251 3.13177539 107.73478584 3.13414625 104.26394653 3.13571167 C98.44907143 3.13752324 92.6342091 3.13515119 86.81933594 3.13037109 C80.09185107 3.12490476 73.36439639 3.12671228 66.63691223 3.1321975 C60.84988358 3.13672706 55.06286405 3.13738072 49.2758342 3.13475883 C45.82355193 3.13319848 42.3712839 3.13299623 38.91900253 3.13629532 C35.08384765 3.1397057 31.24872708 3.13498708 27.41357422 3.12939453 C26.26560867 3.13141876 25.11764313 3.13344299 23.93489075 3.13552856 C22.89764359 3.13270874 21.86039642 3.12988892 20.79171753 3.12698364 C19.88513334 3.12660662 18.97854916 3.12622959 18.04449272 3.12584114 C16 3 16 3 15 2 C12.47403741 1.76346477 9.96892793 1.57826308 7.4375 1.4375 C6.72658203 1.39431641 6.01566406 1.35113281 5.28320312 1.30664062 C3.52238088 1.20028223 1.7612168 1.09961154 0 1 C0 0.67 0 0.34 0 0 Z " fill="#C5C7CA" transform="translate(128,334)"/>
<path d="M0 0 C65.34 0 130.68 0 198 0 C195.89175944 12.64944337 187.41710592 23.20391632 177.20703125 30.67553711 C172.0839729 34.27530623 167.11063426 37.41576149 161 39 C160.01 38.67 159.02 38.34 158 38 C159.07378906 37.49210937 160.14757812 36.98421875 161.25390625 36.4609375 C173.34539019 31.29176103 173.34539019 31.29176103 182 22 C182.66 22 183.32 22 184 22 C184 21.34 184 20.68 184 20 C184.66 20 185.32 20 186 20 C186.2578125 19.29101562 186.515625 18.58203125 186.78125 17.8515625 C188.09062742 14.78795507 189.68495948 12.16677843 191.5 9.375 C192.1084375 8.43398438 192.716875 7.49296875 193.34375 6.5234375 C194.55529651 4.67754352 195.77523383 2.83714925 197 1 C131.99 1 66.98 1 0 1 C0 0.67 0 0.34 0 0 Z " fill="#D9DBDD" transform="translate(143,333)"/>
<path d="M0 0 C0.33 0 0.66 0 1 0 C1.33 14.85 1.66 29.7 2 45 C5.26054082 46.63027041 8.85540533 46.13881777 12.43829346 46.13130188 C13.32189977 46.13341759 14.20550609 46.13553331 15.11588836 46.13771313 C18.09452376 46.14373332 21.07311704 46.14271155 24.05175781 46.1418457 C26.18022229 46.14487588 28.30868613 46.14839693 30.43714905 46.15237427 C35.02996137 46.1602748 39.62276588 46.16541253 44.2155838 46.16866493 C51.47608327 46.17456439 58.73653344 46.19109473 65.99700928 46.21000671 C68.48054883 46.21634444 70.96408841 46.22267006 73.44762802 46.22898388 C75.31353442 46.2337326 75.31353442 46.2337326 77.21713591 46.23857725 C94.12635657 46.28068861 111.03555462 46.31363168 127.94482422 46.32592773 C139.34216309 46.33430092 150.73938038 46.35676523 162.13665843 46.3952834 C168.17089971 46.41507107 174.20495911 46.42743966 180.23923492 46.42244911 C185.91590387 46.41781168 191.59222802 46.43155883 197.26882744 46.45946121 C199.35294653 46.46638852 201.43710116 46.46648308 203.52121925 46.45926094 C206.36581563 46.45039878 209.20926855 46.46602394 212.05377197 46.48774719 C212.87926646 46.47930466 213.70476096 46.47086212 214.55527043 46.46216375 C219.8251958 46.53661882 222.80885767 47.52602478 227 51 C229.62950989 54.41836286 230.36806769 56.70587699 230 61 C228.6917422 59.03761331 227.43837744 57.03721846 226.25 55 C223.63398848 51.51198464 222.04000703 50.5798748 218 49 C215.01067471 48.58521864 212.06146569 48.58782583 209.04704285 48.60800171 C207.71121508 48.59908982 207.71121508 48.59908982 206.34840089 48.58999789 C203.37040448 48.57371357 200.39282626 48.57865332 197.41479492 48.58349609 C195.27762373 48.57611576 193.14045676 48.56741067 191.0032959 48.55747986 C185.20416025 48.53415445 179.40513164 48.52900741 173.60595489 48.52682066 C167.54320031 48.52116314 161.48051566 48.49789371 155.4178009 48.47622681 C143.93734485 48.43769857 132.45690879 48.41348111 120.97640449 48.39510214 C100.39429851 48.36168633 79.81225219 48.30408438 59.23021775 48.24111044 C52.00161208 48.21956277 44.77302729 48.20432546 37.54439676 48.19427085 C33.06040962 48.18727747 28.57643751 48.17640128 24.09246063 48.16462898 C22.004617 48.16005238 19.91676876 48.15721921 17.82892036 48.15620613 C14.99192854 48.15464595 12.15501516 48.147098 9.31803894 48.13803101 C8.48070872 48.13909926 7.6433785 48.14016751 6.78067464 48.14126813 C1.11403636 48.11403636 1.11403636 48.11403636 0 47 C-0.09304018 45.52645652 -0.11746265 44.04849409 -0.11352539 42.57202148 C-0.11344986 41.63112167 -0.11337433 40.69022186 -0.11329651 39.72080994 C-0.10813522 38.69790359 -0.10297394 37.67499725 -0.09765625 36.62109375 C-0.0962413 35.57929459 -0.09482635 34.53749542 -0.09336853 33.46412659 C-0.0877508 30.12188906 -0.0751953 26.77971743 -0.0625 23.4375 C-0.05748728 21.17773534 -0.05292398 18.91796963 -0.04882812 16.65820312 C-0.03777561 11.10544609 -0.02102024 5.55272775 0 0 Z " fill="#D6D7D9" transform="translate(141,257)"/>
<path d="M0 0 C0.33 0 0.66 0 1 0 C0.49755478 6.00541662 -1.39886749 10.56883136 -4.0625 15.9375 C-4.62807617 17.10635742 -4.62807617 17.10635742 -5.20507812 18.29882812 C-6.12815055 20.20339529 -7.06289062 22.10230013 -8 24 C-8.66 24 -9.32 24 -10 24 C-10.10441406 24.57363281 -10.20882812 25.14726562 -10.31640625 25.73828125 C-14.36050892 39.11848381 -31.16728231 48.8022386 -42.64453125 54.98828125 C-50.08810792 58.83046366 -56.47086157 61.11712208 -65 60 C-61.9501998 58.36055341 -58.93489169 57.3145357 -55.625 56.3125 C-44.10918231 52.50666269 -33.99602716 47.15599067 -25 39 C-24.23042969 38.31164062 -23.46085937 37.62328125 -22.66796875 36.9140625 C-11.56081244 26.43132895 -5.78383018 13.84427438 0 0 Z " fill="#CCCFD1" transform="translate(367,340)"/>
<path d="M0 0 C5.36443913 0.3742632 7.49646001 1.9959543 11 6 C11.33 6.33 11.66 6.66 12 7 C12.51213743 12.86859116 12.8784999 18.2116252 10.25 23.5625 C9.13625 24.7690625 9.13625 24.7690625 8 26 C7.319375 26.763125 6.63875 27.52625 5.9375 28.3125 C3.01757481 30.85566065 0.53832729 31.12357914 -3.1875 31.0625 C-5.0746875 31.0315625 -5.0746875 31.0315625 -7 31 C-7 30.34 -7 29.68 -7 29 C-45.94 29 -84.88 29 -125 29 C-125 28.67 -125 28.34 -125 28 C-124.36131422 27.99761165 -123.72262844 27.99522329 -123.06458855 27.99276257 C-107.51525635 27.93359535 -91.96610297 27.85803438 -76.4169445 27.76428509 C-68.89744342 27.71934263 -61.37798952 27.67992444 -53.85839844 27.65356445 C-47.30339302 27.63057176 -40.74853715 27.59715965 -34.19365036 27.55129844 C-30.72370132 27.52738317 -27.25390024 27.50864337 -23.7838707 27.50238609 C-19.90766937 27.49520099 -16.03183848 27.46475114 -12.15576172 27.43237305 C-11.00849106 27.43380814 -9.8612204 27.43524323 -8.67918396 27.4367218 C-3.08991467 27.37061054 1.24465404 27.29974924 6 24 C7.84434349 21.53884453 7.84434349 21.53884453 9 19 C9.33 18.34 9.66 17.68 10 17 C10.50055577 11.30939303 10.50055577 11.30939303 8.375 6.1875 C5.76257341 3.78131761 3.24973719 2.4032956 0 1 C0 0.67 0 0.34 0 0 Z " fill="#CFD3D5" transform="translate(359,152)"/>
<path d="M0 0 C-1.99616554 1.99616554 -5.81701963 1.40983427 -8.5625 1.5625 C-9.27341797 1.60568359 -9.98433594 1.64886719 -10.71679688 1.69335938 C-12.47761912 1.79971777 -14.2387832 1.90038846 -16 2 C-16 2.66 -16 3.32 -16 4 C-16.82242188 4.27972656 -17.64484375 4.55945312 -18.4921875 4.84765625 C-26.24851138 7.63312591 -32.50225704 10.95843673 -39 16 C-40.3303125 16.8971875 -40.3303125 16.8971875 -41.6875 17.8125 C-52.11923808 27.68036035 -60.45519925 44.71059307 -62 59 C-62.33 59 -62.66 59 -63 59 C-64.1750791 44.01774152 -56.11422545 29.7811973 -46.671875 18.70703125 C-35.97185388 7.86622038 -15.74436745 -5.24812248 0 0 Z " fill="#E2E5E6" transform="translate(135,29)"/>
<path d="M0 0 C2.90330029 2.73251792 5.37414443 5.43825699 7.6875 8.6875 C20.02819963 25.28682898 37.46459431 35.91520151 57 42 C50.29085323 44.09374284 43.71689516 41.61166154 37.6875 38.5 C27.7387966 32.68147361 19.20428958 25.46759442 11 17.4375 C10.37706055 16.83687744 9.75412109 16.23625488 9.11230469 15.61743164 C4.72576089 11.20887182 1.76100557 6.56097695 -1 1 C-0.67 0.67 -0.34 0.34 0 0 Z " fill="#C9CBCE" transform="translate(56,356)"/>
<path d="M0 0 C1.51400391 0.01740234 1.51400391 0.01740234 3.05859375 0.03515625 C4.07050781 0.04417969 5.08242188 0.05320312 6.125 0.0625 C6.90746094 0.07410156 7.68992187 0.08570313 8.49609375 0.09765625 C0.63520229 4.35863988 -8.09139871 4.37714948 -16.82861328 4.23291016 C-18.45477318 4.21871788 -18.45477318 4.21871788 -20.11378479 4.20423889 C-23.66327733 4.17081641 -27.21240177 4.12263216 -30.76171875 4.07421875 C-33.2360643 4.04802529 -35.71041983 4.02276043 -38.18478394 3.99838257 C-44.67196372 3.93198986 -51.15893135 3.8530416 -57.64593506 3.77142334 C-64.27559396 3.69025048 -70.90537324 3.62102801 -77.53515625 3.55078125 C-90.52488664 3.41139467 -103.51443274 3.25914167 -116.50390625 3.09765625 C-116.50390625 2.76765625 -116.50390625 2.43765625 -116.50390625 2.09765625 C-115.92245629 2.09342431 -115.34100634 2.08919237 -114.74193668 2.08483219 C-100.61311359 1.98165934 -86.4843412 1.87304192 -72.35560703 1.75831699 C-65.52314042 1.70296974 -58.69066858 1.64948533 -51.8581543 1.6003418 C-45.27051348 1.55295436 -38.68292676 1.50043466 -32.09535027 1.4447155 C-29.57583895 1.42425727 -27.05631282 1.40555008 -24.53677559 1.38858223 C-21.02128844 1.36461473 -17.5059044 1.33455006 -13.99047852 1.30297852 C-12.93744034 1.29722305 -11.88440216 1.29146759 -10.79945374 1.28553772 C-9.84727966 1.2757489 -8.89510559 1.26596008 -7.91407776 1.25587463 C-7.08169869 1.24942208 -6.24931963 1.24296953 -5.39171696 1.23632145 C-2.84732712 1.0494286 -2.7600092 0.10764466 0 0 Z " fill="#C4C6C9" transform="translate(301.50390625,399.90234375)"/>
<path d="M0 0 C2.31 0 4.62 0 7 0 C7 0.33 7 0.66 7 1 C5.02 1 3.04 1 1 1 C1.16242188 1.66644531 1.32484375 2.33289063 1.4921875 3.01953125 C2.10469204 6.61446176 2.13214183 10.0415946 2.125 13.6875 C2.12886719 14.36361328 2.13273437 15.03972656 2.13671875 15.73632812 C2.12674825 20.7465035 2.12674825 20.7465035 1 23 C0.84266751 25.98763355 0.74138585 28.95541151 0.68359375 31.9453125 C0.66281265 32.8303244 0.64203156 33.7153363 0.62062073 34.62716675 C0.55513402 37.45969741 0.49624438 40.29232225 0.4375 43.125 C0.39431394 45.04297857 0.35069963 46.96094754 0.30664062 48.87890625 C0.19945353 53.58584051 0.0981836 58.29286967 0 63 C-0.33 63 -0.66 63 -1 63 C-1.02314476 55.08113286 -1.040926 47.1622798 -1.05181217 39.24338722 C-1.05703632 35.56654289 -1.0641255 31.88972166 -1.07543945 28.21289062 C-1.08628493 24.6662104 -1.09228037 21.11955243 -1.09487724 17.5728569 C-1.09672849 16.21803817 -1.10034338 14.86322069 -1.10573006 13.50841141 C-1.11296238 11.61450635 -1.11340824 9.72057902 -1.11352539 7.82666016 C-1.115746 6.74744293 -1.11796661 5.66822571 -1.12025452 4.55630493 C-1 2 -1 2 0 0 Z " fill="#DCDFE0" transform="translate(72,249)"/>
<path d="M0 0 C0.66 0 1.32 0 2 0 C3.3338384 1.99775346 4.55185382 3.98558151 5.75 6.0625 C13.77754113 19.43333381 23.56244078 26.96290068 38 33 C39.33915312 33.65489781 40.67475704 34.31739226 42 35 C38.16814868 36.25067005 36.15348017 35.49201522 32.51782227 33.75292969 C31.48806274 33.22554199 31.48806274 33.22554199 30.4375 32.6875 C29.72585693 32.32430664 29.01421387 31.96111328 28.28100586 31.58691406 C17.00713492 25.57791414 5.30809475 14.91837456 0.75390625 2.640625 C0.50511719 1.76921875 0.25632812 0.8978125 0 0 Z " fill="#E0E2E3" transform="translate(77,336)"/>
<path d="M0 0 C1.32 0.33 2.64 0.66 4 1 C3.85856168 3.7294586 3.71200471 6.45848123 3.5625 9.1875 C3.52318359 9.95642578 3.48386719 10.72535156 3.44335938 11.51757812 C3.38051758 12.64389648 3.38051758 12.64389648 3.31640625 13.79296875 C3.27974854 14.4789917 3.24309082 15.16501465 3.20532227 15.87182617 C3 18 3 18 2.5 20.29492188 C1.86901038 23.70867432 1.78037279 27.01806139 1.68359375 30.48828125 C1.66281265 31.19147995 1.64203156 31.89467865 1.62062073 32.6191864 C1.55559885 34.85019817 1.49646224 37.08132069 1.4375 39.3125 C1.39426964 40.83139134 1.35065395 42.35027177 1.30664062 43.86914062 C1.19996666 47.5793112 1.09856779 51.28960421 1 55 C0.67 55 0.34 55 0 55 C0 36.85 0 18.7 0 0 Z " fill="#D8DADC" transform="translate(141,97)"/>
<path d="M0 0 C0.33 0 0.66 0 1 0 C0.49755478 6.00541662 -1.39886749 10.56883136 -4.0625 15.9375 C-4.43955078 16.71673828 -4.81660156 17.49597656 -5.20507812 18.29882812 C-6.12815055 20.20339529 -7.06289062 22.10230013 -8 24 C-8.66 24 -9.32 24 -10 24 C-10.09410156 24.56460937 -10.18820312 25.12921875 -10.28515625 25.7109375 C-11.1721396 28.55122299 -12.57631556 30.31109502 -14.4375 32.625 C-15.05496094 33.40101563 -15.67242187 34.17703125 -16.30859375 34.9765625 C-18 37 -18 37 -20 39 C-22.125 38.625 -22.125 38.625 -24 38 C-23.5153125 37.56171875 -23.030625 37.1234375 -22.53125 36.671875 C-11.485954 26.22132571 -5.7614358 13.7906708 0 0 Z " fill="#D8DBDF" transform="translate(367,340)"/>
<path d="M0 0 C0.391875 0.556875 0.78375 1.11375 1.1875 1.6875 C3.7022667 4.89599544 6.31322114 8.15661057 10 10 C12.24974161 10.15495763 14.50371536 10.25010928 16.7578125 10.31640625 C17.75238968 10.3475779 17.75238968 10.3475779 18.76705933 10.37937927 C20.88626694 10.44479231 23.005599 10.50372105 25.125 10.5625 C26.56121081 10.60569309 27.99740902 10.64930764 29.43359375 10.69335938 C32.95559594 10.80046499 36.47773825 10.90175575 40 11 C40 11.33 40 11.66 40 12 C35.7345303 12.43742514 31.4678529 12.83031322 27.19482422 13.18408203 C25.74484721 13.31020906 24.29583383 13.44802109 22.84814453 13.59814453 C9.27493873 14.99194719 9.27493873 14.99194719 4.0625 11.1640625 C2.21872364 9.46870001 1.11959163 8.23918326 0 6 C-0.039992 4.00039988 -0.04346799 1.99952758 0 0 Z " fill="#CED2D4" transform="translate(1,169)"/>
<path d="M0 0 C0.33 0 0.66 0 1 0 C0.67 23.1 0.34 46.2 0 70 C-0.99 69.67 -1.98 69.34 -3 69 C-2.83701416 68.11626709 -2.67402832 67.23253418 -2.50610352 66.32202148 C-1.68418969 60.527307 -1.87744879 54.68723635 -1.90234375 48.84765625 C-1.9037587 47.59238632 -1.90517365 46.33711639 -1.90663147 45.04380798 C-1.91126424 41.72794649 -1.92022861 38.41215548 -1.93133545 35.09631348 C-1.94161708 31.70418909 -1.94614347 28.31205739 -1.95117188 24.91992188 C-1.96217428 18.27992864 -1.97889247 11.63996839 -2 5 C-1.67 5 -1.34 5 -1 5 C-0.67 3.35 -0.34 1.7 0 0 Z " fill="#E2E5E7" transform="translate(43,82)"/>
<path d="M0 0 C6.33804853 1.15738278 9.66202735 6.08350892 13.1953125 11.14453125 C16.55011724 16.33301809 19.33992261 20.72926482 20 27 C17.69 27 15.38 27 13 27 C13.33 26.34 13.66 25.68 14 25 C14.99 25 15.98 25 17 25 C13.07320067 16.9443795 9.09522988 10.42404314 2.8203125 3.92578125 C1 2 1 2 0 0 Z " fill="#D1D3D5" transform="translate(321,42)"/>
<path d="M0 0 C1.51815699 0.00015911 3.0363194 0.00585313 4.55444336 0.01586914 C5.35208603 0.01728409 6.1497287 0.01869904 6.97154236 0.02015686 C9.52916146 0.02577223 12.08669429 0.03832727 14.64428711 0.05102539 C16.37410356 0.05603841 18.10392137 0.06060166 19.83374023 0.06469727 C24.08312264 0.07574664 28.33244023 0.09302153 32.58178711 0.11352539 C32.58178711 0.44352539 32.58178711 0.77352539 32.58178711 1.11352539 C21.03178711 1.11352539 9.48178711 1.11352539 -2.41821289 1.11352539 C-2.08821289 2.76352539 -1.75821289 4.41352539 -1.41821289 6.11352539 C-1.35168434 8.38347958 -1.33277539 10.65521234 -1.35571289 12.92602539 C-1.36473633 14.0874707 -1.37375977 15.24891602 -1.38305664 16.44555664 C-1.3946582 17.32598633 -1.40625977 18.20641602 -1.41821289 19.11352539 C-2.07821289 18.78352539 -2.73821289 18.45352539 -3.41821289 18.11352539 C-3.61205468 15.30132834 -3.79857892 12.48898343 -3.98071289 9.67602539 C-4.03678711 8.87358398 -4.09286133 8.07114258 -4.15063477 7.24438477 C-4.27984239 5.20290428 -4.35334019 3.1580617 -4.41821289 1.11352539 C-3.41821289 0.11352539 -3.41821289 0.11352539 0 0 Z " fill="#DBDEDF" transform="translate(145.418212890625,248.886474609375)"/>
<path d="M0 0 C5.36443913 0.3742632 7.49646001 1.9959543 11 6 C11.33 6.33 11.66 6.66 12 7 C12.51213743 12.86859116 12.8784999 18.2116252 10.25 23.5625 C9.5075 24.366875 8.765 25.17125 8 26 C7.360625 26.804375 6.72125 27.60875 6.0625 28.4375 C4 30 4 30 1.25 29.75 C0.5075 29.5025 -0.235 29.255 -1 29 C0 27 0 27 2.875 25.6875 C6.33207113 23.82068159 7.30952119 22.4699302 9 19 C9.33 18.34 9.66 17.68 10 17 C10.50055577 11.30939303 10.50055577 11.30939303 8.375 6.1875 C5.76257341 3.78131761 3.24973719 2.4032956 0 1 C0 0.67 0 0.34 0 0 Z " fill="#D9DDE1" transform="translate(359,152)"/>
<path d="M0 0 C2.4931768 3.7397652 2.26776473 5.79105186 2.25 10.25 C2.25515625 11.53390625 2.2603125 12.8178125 2.265625 14.140625 C1.89710485 19.49500601 1.17831213 23.59876395 -2.3125 27.75 C-3.6428125 28.86375 -3.6428125 28.86375 -5 30 C-5.721875 30.61875 -6.44375 31.2375 -7.1875 31.875 C-11.50069334 33.60027734 -15.49451169 32.72612724 -20 32 C-20 31.67 -20 31.34 -20 31 C-19.26394531 30.89042969 -18.52789062 30.78085938 -17.76953125 30.66796875 C-10.26349624 29.72919846 -10.26349624 29.72919846 -4 26 C1.11452736 17.9556275 0.4078056 9.13031426 0 0 Z " fill="#D6D9DE" transform="translate(369,66)"/>
<path d="M0 0 C5.62041179 1.8734706 8.26412033 8.92476485 11 14 C16.34834872 24.99098457 16.34834872 24.99098457 16 31 C13.94081977 27.91122965 12.74948301 25.00638621 11.375 21.5625 C8.77819879 15.23393783 5.52170669 9.90681012 1.5390625 4.328125 C0 2 0 2 0 0 Z " fill="#E5E7E8" transform="translate(353,34)"/>
<path d="M0 0 C0.33 0.99 0.66 1.98 1 3 C-4.94886008 11.42849966 -14.99648382 18.40649581 -25 21 C-25.99 20.67 -26.98 20.34 -28 20 C-26.92621094 19.49210937 -25.85242188 18.98421875 -24.74609375 18.4609375 C-12.65460981 13.29176103 -12.65460981 13.29176103 -4 4 C-3.34 4 -2.68 4 -2 4 C-2 3.34 -2 2.68 -2 2 C-1.34 2 -0.68 2 0 2 C0 1.34 0 0.68 0 0 Z " fill="#DFE2E3" transform="translate(329,351)"/>
<path d="M0 0 C0.92683594 0.00451172 1.85367188 0.00902344 2.80859375 0.01367188 C5.08079709 0.02538426 7.35286388 0.04178628 9.625 0.0625 C9.625 0.7225 9.625 1.3825 9.625 2.0625 C-2.75 2.5575 -2.75 2.5575 -15.375 3.0625 C-15.705 4.0525 -16.035 5.0425 -16.375 6.0625 C-16.375 4.4125 -16.375 2.7625 -16.375 1.0625 C-10.89230931 -0.09414737 -5.57160726 -0.05166255 0 0 Z " fill="#BFC3C5" transform="translate(89.375,248.9375)"/>
<path d="M0 0 C3.37470504 -0.11689626 6.7488843 -0.18747934 10.125 -0.25 C11.07632812 -0.28351563 12.02765625 -0.31703125 13.0078125 -0.3515625 C19.0371233 -0.43530293 22.41360692 -0.02044393 27 4 C29.62950989 7.41836286 30.36806769 9.70587699 30 14 C28.6917422 12.03761331 27.43837744 10.03721846 26.25 8 C23.3864357 4.18191427 20.62455686 2.3979281 15.82617188 1.67041016 C13.42374584 1.48418719 11.03361449 1.37972608 8.625 1.3125 C7.79355469 1.27833984 6.96210938 1.24417969 6.10546875 1.20898438 C4.07076649 1.12712854 2.03540792 1.06187299 0 1 C0 0.67 0 0.34 0 0 Z " fill="#DFE1E2" transform="translate(341,304)"/>
<path d="M0 0 C4.00246628 0.55461427 6.03233587 2.54627252 8.9375 5.25 C9.81277344 6.06339844 10.68804687 6.87679688 11.58984375 7.71484375 C12.78287109 8.84599609 12.78287109 8.84599609 14 10 C14.55816406 10.51691406 15.11632812 11.03382812 15.69140625 11.56640625 C18.07436321 13.83555034 19.75370703 15.94091727 21 19 C20.34 19.33 19.68 19.66 19 20 C18.55011719 19.38253906 18.10023438 18.76507813 17.63671875 18.12890625 C13.04035541 12.07718138 8.13528386 7.36138114 2.125 2.71484375 C1.42375 2.14894531 0.7225 1.58304688 0 1 C0 0.67 0 0.34 0 0 Z " fill="#F4F5F5" transform="translate(333,15)"/>
<path d="M0 0 C1.10312408 2.75781019 1.07561442 3.80925835 -0.0390625 6.62109375 C-2.91920305 11.73582611 -5.51266269 16.17256523 -10 20 C-9.43491688 15.73478356 -7.94219683 12.99467676 -5.5625 9.4375 C-3.5131538 6.35278474 -1.5717802 3.356817 0 0 Z " fill="#CFD2D4" transform="translate(340,333)"/>
<path d="M0 0 C0.391875 0.556875 0.78375 1.11375 1.1875 1.6875 C4.61430741 6.05963359 7.6097661 9.30592649 13 11 C10.50935112 11.68707555 8.62113708 12 6 12 C1.33333333 8.66666667 1.33333333 8.66666667 0 6 C-0.039992 4.00039988 -0.04346799 1.99952758 0 0 Z " fill="#DCDFE0" transform="translate(1,169)"/>
<path d="M0 0 C-1.96238669 1.3082578 -3.96278154 2.56162256 -6 3.75 C-9.30397365 6.22798024 -10.45458676 8.22232318 -12 12 C-12.33 12 -12.66 12 -13 12 C-12.63166144 5.61546499 -12.63166144 5.61546499 -9.5625 2.625 C-5.99414498 0.36214072 -4.2058419 -0.11068005 0 0 Z " fill="#E3E5E6" transform="translate(14,221)"/>
<path d="M0 0 C1.16061013 2.32122027 2.29329611 4.63991878 3.375 7 C4.95536281 9.91759287 6.54563258 11.79953265 9 14 C7.68 14 6.36 14 5 14 C0.55094114 9.16959324 -0.12039291 6.50121737 0 0 Z " fill="#DDDFE0" transform="translate(0,234)"/>
<path d="M0 0 C6.07293476 0.2381543 6.07293476 0.2381543 8.578125 2.296875 C10.87207143 4.95996223 12 6.42610954 12 10 C11.34 10 10.68 10 10 10 C9.4225 9.071875 8.845 8.14375 8.25 7.1875 C5.78228833 3.69157513 3.90285207 2.5966213 0 1 C0 0.67 0 0.34 0 0 Z " fill="#E4E6E7" transform="translate(359,221)"/>
<path d="M0 0 C3.88382414 0.27096447 5.73173064 0.78538452 8.8125 3.25 C11.01217428 6.01530481 11.7027815 7.53245088 12 11 C11.505 10.278125 11.01 9.55625 10.5 8.8125 C7.78392011 5.75691012 5.11728398 4.03843383 1.609375 2.015625 C1.07828125 1.68046875 0.5471875 1.3453125 0 1 C0 0.67 0 0.34 0 0 Z " fill="#DFE2E3" transform="translate(359,152)"/>
<path d="M0 0 C0.58394531 0.21914062 1.16789062 0.43828125 1.76953125 0.6640625 C1.15464844 1.05078125 0.53976563 1.4375 -0.09375 1.8359375 C-0.90199219 2.35671875 -1.71023437 2.8775 -2.54296875 3.4140625 C-3.74373047 4.17976563 -3.74373047 4.17976563 -4.96875 4.9609375 C-7.23415736 6.66684011 -8.65731042 8.32214395 -10.23046875 10.6640625 C-10.14710897 7.8298301 -9.6165562 6.10704705 -7.74609375 3.9609375 C-2.93209205 -0.44161106 -2.93209205 -0.44161106 0 0 Z " fill="#E1E2E3" transform="translate(124.23046875,70.3359375)"/>
<path d="M0 0 C-2.49031084 2.07525903 -4.29089974 3.00649557 -7.55859375 2.9765625 C-10.05338223 2.71469818 -12.52365349 2.39910051 -15 2 C-15 1.67 -15 1.34 -15 1 C-13.25215171 0.63536268 -11.50159498 0.2836922 -9.75 -0.0625 C-8.28820312 -0.35833984 -8.28820312 -0.35833984 -6.796875 -0.66015625 C-4.131881 -0.98397535 -2.51128277 -0.85503199 0 0 Z " fill="#DDE1E3" transform="translate(364,96)"/>
<path d="M0 0 C3.24732932 1.62366466 3.70155136 4.75387839 5 8 C3.68 8 2.36 8 1 8 C0.67 5.36 0.34 2.72 0 0 Z " fill="#DBDDDE" transform="translate(112,317)"/>
<path d="M0 0 C0.33 0 0.66 0 1 0 C1.0270043 1.45823212 1.04639787 2.91660675 1.0625 4.375 C1.07410156 5.18710938 1.08570313 5.99921875 1.09765625 6.8359375 C1 9 1 9 0 11 C-0.66 11 -1.32 11 -2 11 C-1.34 7.37 -0.68 3.74 0 0 Z " fill="#D0D2D8" transform="translate(370,163)"/>
<path d="" fill="#EFEFEE" transform="translate(0,0)"/>
<path d="M0 0 C2 1 2 1 2 1 Z " fill="#EEF3F2" transform="translate(106,150)"/>
<path d="" fill="#E5E7E9" transform="translate(0,0)"/>
<path d="" fill="#F2F3F2" transform="translate(0,0)"/>
</svg>
